 <svg version="1.0" xmlns="http://www.w3.org/2000/svg"  width="300.000000pt" height="300.000000pt" viewBox="0 0 300.000000 300.000000"  preserveAspectRatio="xMidYMid meet">  <g transform="translate(0.000000,300.000000) scale(0.100000,-0.100000)" fill="#000000" stroke="none"> <path d="M1234 2978 c-16 -5 -41 -9 -56 -10 -16 0 -28 -5 -28 -10 0 -5 -4 -7 -9 -4 -5 3 -28 -1 -52 -10 -24 -8 -52 -17 -61 -19 -9 -2 -25 -8 -36 -14 -11 -6 -22 -7 -26 -4 -3 3 -6 1 -6 -5 0 -7 -3 -11 -7 -10 -15 3 -63 -14 -63 -23 0 -5 -3 -8 -7 -7 -16 5 -131 -56 -228 -121 -131 -86 -308 -262 -393 -391 -34 -52 -62 -99 -61 -104 0 -5 -3 -12 -9 -15 -14 -9 -61 -109 -55 -115 4 -3 2 -6 -4 -6 -10 0 -28 -46 -25 -62 1 -5 -3 -8 -10 -8 -6 0 -8 -3 -5 -6 3 -4 2 -15 -4 -26 -6 -11 -12 -27 -14 -36 -2 -9 -11 -37 -19 -61 -9 -24 -13 -47 -10 -52 3 -5 0 -9 -6 -9 -7 0 -10 -6 -7 -12 2 -7 0 -26 -5 -43 -5 -16 -11 -73 -13 -125 l-4 -95 19 115 c33 199 66 310 133 445 49 99 126 225 138 225 5 0 9 5 9 11 0 19 66 97 162 192 78 76 120 111 187 152 9 6 32 22 52 37 20 15 87 52 150 81 163 77 341 128 494 142 39 4 72 9 74 11 8 8 -165 0 -195 -8z"/> <path d="M1580 2986 c4 -3 22 -7 40 -10 44 -6 150 -23 215 -35 49 -9 69 -15 110 -31 11 -4 47 -17 80 -29 280 -102 527 -298 696 -552 85 -126 103 -159 146 -269 50 -126 92 -280 93 -338 1 -15 7 -56 15 -92 l14 -65 -4 100 c-2 55 -9 116 -15 135 -6 19 -12 49 -15 66 -2 18 -11 48 -19 68 -8 20 -13 36 -10 36 2 0 -2 13 -10 29 -9 16 -12 31 -9 35 4 3 2 6 -4 6 -5 0 -10 6 -10 14 0 26 -86 192 -152 291 -89 134 -263 308 -396 397 -99 65 -265 151 -291 151 -8 0 -14 5 -14 10 0 6 -3 8 -6 4 -4 -3 -19 0 -35 9 -16 8 -29 12 -29 9 0 -2 -23 4 -51 15 -28 11 -55 18 -60 15 -5 -4 -9 -1 -9 5 0 6 -4 9 -9 6 -4 -3 -23 -1 -42 5 -37 11 -228 24 -219 15z"/> <path d="M1499 2886 c-89 -36 -114 -60 -184 -180 -22 -38 -25 -49 -15 -61 16 -19 30 -19 30 0 0 9 -6 12 -17 8 -12 -5 -10 2 8 28 13 19 28 37 32 40 5 3 8 10 7 14 -4 13 63 94 73 88 6 -3 3 -11 -7 -19 -9 -6 -18 -21 -19 -33 -1 -11 -6 -22 -12 -25 -7 -2 -12 -26 -13 -53 -1 -34 1 -44 8 -33 5 8 10 26 10 40 0 31 62 127 103 160 17 13 55 30 86 36 l56 12 -45 1 c-26 0 -69 -10 -101 -23z"/> <path d="M1573 2838 c-38 -13 -103 -70 -132 -118 -30 -50 -26 -70 5 -24 31 47 82 102 107 115 24 13 21 4 -7 -24 -30 -30 -80 -106 -74 -112 2 -3 18 15 36 40 17 24 53 60 79 79 45 33 53 36 128 37 70 1 75 2 40 10 -54 11 -143 9 -182 -3z"/> <path d="M1653 2799 c-50 -12 -126 -76 -154 -131 -11 -22 -18 -42 -15 -45 2 -3 11 9 20 25 25 48 93 106 149 125 34 12 82 18 137 19 57 0 77 3 60 8 -34 11 -145 10 -197 -1z"/> <path d="M1038 2791 c-63 -9 -71 -19 -10 -13 86 8 172 -48 216 -143 14 -29 33 -55 42 -59 12 -5 15 -2 10 10 -3 8 -6 18 -6 20 0 3 -4 2 -10 -1 -5 -3 -9 8 -8 28 1 41 -35 93 -90 130 -46 30 -82 37 -144 28z"/> <path d="M1843 2764 c-29 -9 -69 -31 -90 -50 -33 -29 -35 -32 -11 -21 16 7 28 15 28 20 0 4 14 7 30 7 l31 0 -35 -30 c-18 -17 -43 -50 -55 -75 -26 -55 -27 -70 -2 -30 38 62 104 126 155 150 61 29 90 31 166 11 66 -17 77 -12 24 10 -55 24 -176 27 -241 8z m17 -24 c-8 -5 -19 -10 -25 -10 -5 0 -3 5 5 10 8 5 20 10 25 10 6 0 3 -5 -5 -10z"/> <path d="M1702 2751 c-57 -20 -102 -55 -102 -80 1 -15 2 -15 13 0 15 19 88 69 102 69 5 0 -22 -31 -60 -70 -38 -38 -64 -70 -58 -70 6 0 9 -10 6 -22 -4 -20 -3 -21 7 -5 6 9 9 21 6 26 -3 5 32 45 79 90 46 44 79 81 72 80 -7 0 -36 -9 -65 -18z"/> <path d="M1589 2724 c-23 -25 -23 -26 -2 -15 23 12 38 29 31 37 -3 2 -15 -8 -29 -22z"/> <path d="M1933 2702 c-63 -23 -127 -66 -159 -108 -37 -48 -28 -51 21 -5 53 49 71 54 29 9 -16 -18 -38 -44 -49 -58 -19 -23 -19 -24 -1 -10 11 8 43 40 72 71 98 102 202 128 323 80 68 -28 80 -19 15 11 -67 30 -180 35 -251 10z"/> <path d="M1005 2703 c-58 -5 -166 -33 -195 -50 l-25 -14 25 6 c54 14 81 17 113 11 40 -8 159 -76 206 -120 25 -22 30 -25 19 -8 -52 78 -121 126 -199 138 -39 7 -41 8 -18 16 28 11 103 2 139 -17 14 -7 36 -31 48 -54 27 -47 35 -52 26 -16 -8 34 1 31 23 -7 79 -135 102 -178 113 -211 7 -21 14 -37 16 -35 2 2 -5 31 -15 63 -29 91 -121 242 -141 230 -4 -3 -16 5 -26 17 -11 11 -32 27 -49 35 l-30 14 30 -6 c51 -11 112 -53 149 -104 20 -27 36 -53 36 -59 0 -6 5 -14 11 -17 14 -9 -17 64 -39 90 -55 66 -118 107 -159 103 -10 -1 -36 -3 -58 -5z"/> <path d="M1553 2633 c-20 -49 -53 -163 -53 -185 0 -10 7 -18 16 -18 14 0 14 3 4 15 -8 10 -9 15 -2 15 6 0 9 6 6 14 -5 13 33 125 57 168 12 23 11 28 -2 28 -5 0 -17 -17 -26 -37z"/> <path d="M2046 2659 c-69 -10 -159 -53 -191 -91 -13 -16 -27 -28 -31 -28 -4 0 -22 -11 -40 -25 -41 -31 -42 -31 -36 3 3 22 0 19 -22 -18 -57 -99 -111 -240 -86 -225 5 3 12 20 15 38 10 45 34 89 45 82 6 -4 10 5 10 19 0 14 4 26 9 26 5 0 26 17 47 38 46 45 116 88 108 67 -3 -8 -14 -17 -25 -20 -20 -7 -52 -58 -43 -68 6 -5 31 19 113 108 39 43 99 72 165 81 25 4 43 11 40 15 -3 5 -8 8 -12 8 -4 -1 -33 -5 -66 -10z"/> <path d="M1436 2595 c-3 -9 -6 -29 -5 -43 1 -22 3 -19 10 12 10 40 6 60 -5 31z"/> <path d="M1475 2599 c-4 -6 -5 -12 -2 -15 2 -3 7 2 10 11 7 17 1 20 -8 4z"/> <path d="M2069 2597 c-25 -7 -66 -25 -92 -40 -53 -31 -147 -120 -147 -139 0 -7 27 14 60 47 33 33 60 55 60 51 0 -5 10 2 23 16 16 17 45 30 96 41 77 18 171 23 171 9 0 -4 -17 -6 -37 -5 -51 4 -209 -38 -205 -55 1 -6 -4 -12 -11 -12 -27 0 -159 -120 -194 -177 -30 -48 -62 -112 -68 -133 -1 -3 -7 -18 -14 -34 -6 -16 -9 -31 -7 -34 10 -9 35 19 30 33 -3 7 -1 16 5 20 6 3 11 20 11 36 0 18 4 28 10 24 6 -3 10 -2 10 4 0 6 13 31 30 57 16 26 27 51 24 55 -4 8 71 67 131 102 29 17 29 17 -5 -14 -33 -30 -33 -31 -5 -14 17 11 49 30 73 43 23 13 47 32 52 43 21 37 158 52 226 24 20 -8 49 -29 65 -46 33 -36 38 -30 9 11 -28 39 -136 90 -201 96 -30 2 -75 -2 -100 -9z m-40 -76 c11 -7 9 -12 -10 -22 -21 -11 -23 -11 -11 3 10 13 10 17 0 21 -7 3 -8 6 -3 6 6 0 16 -3 24 -8z"/> <path d="M874 2591 c4 -6 14 -11 22 -11 26 0 78 -31 123 -74 38 -36 42 -38 36 -16 -4 14 -12 27 -16 28 -5 2 -9 9 -9 15 0 7 -17 20 -38 29 l-37 17 35 -5 c19 -3 48 -15 63 -25 15 -11 33 -18 40 -16 7 3 4 8 -8 13 -11 4 -28 15 -37 24 -10 9 -37 17 -60 18 -24 1 -60 5 -82 8 -27 4 -36 3 -32 -5z"/> <path d="M1622 2543 c-17 -57 -14 -76 4 -25 8 24 14 48 12 54 -2 6 -9 -7 -16 -29z"/> <path d="M752 2540 c97 -12 168 -35 216 -70 46 -33 54 -33 20 1 -17 16 -18 20 -6 16 12 -4 15 -2 12 8 -11 28 -86 47 -199 51 -97 3 -102 2 -43 -6z"/> <path d="M1585 2523 c-5 -15 -9 -57 -10 -93 -1 -36 -5 -76 -10 -90 -4 -14 -4 -22 0 -18 12 11 34 117 25 120 -5 2 -4 25 1 52 10 54 6 73 -6 29z"/> <path d="M1546 2515 c-3 -9 -6 -22 -5 -28 0 -7 5 -1 10 12 5 13 8 26 5 28 -2 2 -6 -3 -10 -12z"/> <path d="M768 2499 c-8 -6 0 -9 25 -9 52 0 140 -43 193 -95 24 -23 44 -37 44 -31 0 5 6 1 14 -10 8 -10 17 -16 20 -13 10 10 -98 110 -144 134 -49 24 -130 37 -152 24z"/> <path d="M1077 2483 c3 -10 11 -22 18 -28 17 -15 85 -116 85 -127 0 -13 52 -80 57 -74 3 3 -4 17 -15 33 -10 15 -22 38 -26 49 -4 12 -14 31 -24 43 -9 12 -33 44 -52 71 -35 50 -54 65 -43 33z"/> <path d="M1184 2467 c15 -19 26 -40 26 -47 0 -7 7 -21 16 -31 15 -17 64 -149 64 -174 0 -7 7 -18 15 -25 8 -7 15 -17 15 -23 0 -5 -9 -2 -20 8 -22 20 -28 8 -7 -14 10 -11 10 -13 0 -7 -15 8 -16 -20 -3 -69 7 -28 8 -28 9 12 1 49 18 66 24 26 3 -20 4 -16 6 15 0 23 -7 61 -17 85 -11 23 -27 67 -37 97 -10 30 -25 63 -33 73 -8 9 -11 17 -6 17 5 0 4 4 -1 8 -6 4 -21 24 -35 44 -14 21 -29 38 -33 38 -4 0 3 -15 17 -33z"/> <path d="M1274 2487 c3 -10 13 -43 22 -73 9 -31 18 -54 20 -52 5 6 -22 103 -35 124 -11 17 -12 17 -7 1z"/> <path d="M2118 2485 c-60 -16 -133 -51 -150 -72 -12 -14 -9 -14 19 1 52 26 83 36 83 26 0 -5 -9 -12 -21 -15 -11 -4 -18 -9 -16 -11 3 -3 33 11 68 30 73 39 123 51 159 38 21 -8 19 -9 -19 -8 -27 0 -46 -4 -49 -12 -2 -6 -28 -19 -58 -28 -30 -8 -52 -20 -49 -25 4 -5 -2 -6 -12 -2 -10 3 -15 3 -11 -2 4 -4 -21 -28 -55 -53 -60 -45 -79 -64 -77 -78 1 -4 -4 -11 -12 -15 -8 -5 -9 -9 -2 -9 7 0 19 11 28 25 18 27 193 146 252 171 25 11 56 15 91 12 29 -3 53 -2 53 2 0 12 -96 40 -135 39 -22 0 -61 -7 -87 -14z"/> <path d="M1391 2475 c1 -19 18 -51 18 -35 0 8 -4 22 -9 30 -5 8 -9 11 -9 5z"/> <path d="M1630 2434 c0 -8 5 -12 10 -9 6 3 10 10 10 16 0 5 -4 9 -10 9 -5 0 -10 -7 -10 -16z"/> <path d="M713 2430 c-50 -10 -75 -23 -125 -63 -52 -42 -56 -64 -5 -28 43 31 173 71 233 71 18 0 56 -11 85 -24 30 -14 68 -28 84 -31 l30 -7 -30 19 c-79 51 -198 78 -272 63z m17 -19 c-14 -4 -38 -11 -55 -14 l-30 -6 30 14 c17 8 41 14 55 14 l25 -1 -25 -7z"/> <path d="M1050 2431 c0 -5 4 -13 10 -16 17 -10 78 -127 115 -220 48 -120 68 -141 38 -40 -6 18 -5 19 12 5 11 -9 16 -10 11 -2 -4 6 -3 12 3 12 5 0 14 -12 19 -27 8 -24 9 -21 9 25 0 28 -4 52 -9 52 -5 0 -6 5 -3 10 3 6 2 10 -4 10 -5 0 -13 -9 -16 -20 -4 -11 -11 -18 -16 -14 -5 3 -8 0 -7 -7 2 -6 -3 -14 -9 -16 -7 -3 -13 1 -13 7 0 19 -90 192 -116 223 -13 16 -24 24 -24 18z m196 -248 c-10 -10 -19 5 -10 18 6 11 8 11 12 0 2 -7 1 -15 -2 -18z"/> <path d="M1331 2430 c1 -30 24 -129 33 -137 5 -4 6 1 3 12 -3 11 -9 40 -12 65 -8 47 -25 90 -24 60z"/> <path d="M1209 2361 c20 -38 37 -68 39 -66 6 6 -59 135 -67 135 -5 0 8 -31 28 -69z"/> <path d="M1371 2414 c0 -11 3 -14 6 -6 3 7 2 16 -1 19 -3 4 -6 -2 -5 -13z"/> <path d="M1456 2369 c-7 -57 -3 -80 9 -67 9 9 14 128 6 128 -5 0 -12 -27 -15 -61z"/> <path d="M1783 2399 c-7 -18 -11 -35 -8 -37 6 -6 27 48 23 60 -2 5 -9 -6 -15 -23z"/> <path d="M2191 2411 c-29 -11 -78 -41 -109 -66 -35 -29 -61 -44 -71 -40 -12 5 -13 3 -5 -5 13 -13 60 7 83 34 8 9 20 16 28 16 7 0 16 7 20 16 4 11 13 14 30 9 14 -3 22 -2 20 2 -3 5 2 9 11 10 9 0 37 5 62 10 25 5 61 6 80 3 31 -5 29 -6 -25 -12 -70 -8 -127 -26 -120 -38 3 -5 19 -1 36 7 22 11 37 13 52 6 12 -6 56 -17 97 -25 41 -8 84 -18 95 -22 18 -7 18 -6 -3 12 -15 14 -44 23 -90 27 -95 10 -114 26 -22 18 41 -3 92 -14 113 -25 43 -21 51 -10 9 14 -100 59 -211 78 -291 49z"/> <path d="M1405 2389 c2 -19 8 -56 11 -84 4 -27 6 -54 4 -60 -1 -5 -4 -35 -6 -65 l-3 -55 17 48 c10 27 21 45 25 41 4 -4 7 -2 7 4 0 7 -4 12 -9 12 -10 0 -18 36 -29 122 -4 31 -11 60 -14 64 -4 3 -5 -9 -3 -27z"/> <path d="M1510 2410 c0 -5 5 -10 10 -10 6 0 10 5 10 10 0 6 -4 10 -10 10 -5 0 -10 -4 -10 -10z"/> <path d="M1602 2361 c-7 -21 -12 -47 -12 -57 1 -32 19 8 26 56 7 51 1 52 -14 1z"/> <path d="M1965 2374 l-30 -26 33 18 c17 10 32 22 32 26 0 11 -1 10 -35 -18z"/> <path d="M765 2380 c-11 -5 -32 -9 -46 -9 -15 -1 -37 -10 -50 -22 l-24 -21 25 8 c48 14 155 16 195 4 22 -7 57 -26 77 -44 106 -90 137 -101 59 -22 -30 30 -76 65 -103 78 -26 12 -48 26 -48 30 0 11 -60 9 -85 -2z"/> <path d="M1152 2314 c22 -41 42 -73 44 -71 6 5 -64 134 -75 142 -5 2 10 -30 31 -71z"/> <path d="M1924 2368 l-19 -23 23 19 c21 18 27 26 19 26 -2 0 -12 -10 -23 -22z"/> <path d="M1721 2373 c0 -6 -4 -20 -7 -30 -5 -14 -4 -15 5 -7 7 7 11 20 8 30 -3 11 -5 14 -6 7z"/> <path d="M1532 2353 c-5 -10 -9 -38 -8 -63 1 -25 -1 -47 -5 -50 -3 -3 -9 -27 -12 -55 l-7 -50 24 60 c13 33 27 71 31 85 7 25 7 25 -10 5 -9 -11 -14 -14 -10 -8 6 12 13 93 8 93 -1 0 -6 -8 -11 -17z"/> <path d="M1382 2335 c0 -16 2 -22 5 -12 2 9 2 23 0 30 -3 6 -5 -1 -5 -18z"/> <path d="M1821 2304 c-12 -20 -20 -38 -18 -40 2 -2 14 14 26 36 28 50 21 53 -8 4z"/> <path d="M2165 2330 c-4 -6 -10 -8 -15 -5 -4 3 -13 -2 -20 -11 -7 -8 -19 -13 -27 -10 -8 3 -12 2 -10 -2 3 -4 -9 -18 -26 -32 -28 -22 -30 -23 -23 -5 12 33 -50 -32 -69 -71 -9 -19 -20 -34 -25 -34 -5 0 -12 -11 -16 -25 -3 -14 -10 -22 -15 -19 -5 3 -6 -3 -2 -12 4 -10 2 -15 -4 -11 -9 6 -48 -61 -40 -70 6 -5 62 66 70 90 4 9 11 17 16 17 5 0 12 12 16 27 6 25 51 88 64 88 3 1 24 12 46 26 22 14 55 34 73 43 32 17 40 26 23 26 -6 0 -13 -5 -16 -10z"/> <path d="M2270 2330 c95 -13 174 -59 220 -128 34 -52 41 -79 8 -36 -49 66 -95 105 -143 123 -43 16 -59 17 -105 9 -82 -16 -78 -23 13 -23 108 0 150 -22 217 -113 52 -70 63 -99 33 -87 -63 25 -237 22 -280 -5 -14 -9 -8 -10 27 -4 117 19 214 10 253 -24 20 -18 23 -40 3 -23 -23 19 -106 35 -106 20 0 -5 10 -9 23 -9 38 0 67 -12 67 -27 0 -8 5 -11 12 -7 7 4 8 3 4 -4 -4 -7 9 -19 34 -32 22 -11 50 -36 63 -55 31 -48 42 -44 15 6 -60 107 -68 124 -57 128 6 2 27 -12 47 -30 29 -28 33 -30 20 -9 -8 14 -33 37 -54 52 -21 14 -38 29 -37 32 0 3 -5 27 -13 53 -37 121 -146 203 -269 201 l-50 -1 55 -7z m289 -320 c10 -31 10 -33 -3 -20 -8 8 -18 29 -22 45 -9 40 9 22 25 -25z"/> <path d="M1080 2300 c27 -39 34 -39 12 0 -9 16 -21 30 -25 30 -5 0 1 -13 13 -30z"/> <path d="M1847 2297 c-24 -45 -39 -67 -64 -94 -21 -22 -39 -61 -31 -69 3 -2 11 8 19 24 7 15 20 35 29 44 31 35 40 47 40 57 0 6 14 23 30 38 26 25 28 29 12 30 -12 1 -25 -10 -35 -30z"/> <path d="M1669 2280 c-7 -22 -18 -45 -26 -51 -14 -12 -16 -62 -4 -94 7 -17 10 -13 21 25 7 25 19 59 27 75 l14 30 -20 -25 c-11 -14 -21 -29 -21 -34 0 -5 -3 -7 -6 -4 -3 4 2 18 11 31 15 23 30 87 20 87 -2 0 -10 -18 -16 -40z"/> <path d="M1332 2290 c0 -14 3 -34 8 -45 9 -20 9 -20 8 0 0 11 -4 31 -8 45 l-8 25 0 -25z"/> <path d="M622 2290 c-55 -13 -48 -19 19 -17 35 1 78 -2 94 -7 29 -8 29 -8 10 8 -19 17 -19 17 10 11 17 -4 35 -8 40 -9 6 -1 16 -5 23 -10 7 -4 16 -6 19 -3 5 6 96 -25 139 -48 13 -6 20 -16 16 -20 -4 -5 -2 -5 4 -2 13 7 56 -38 46 -48 -4 -4 0 -5 8 -3 8 2 14 -3 12 -9 -1 -7 2 -13 7 -13 5 0 13 -9 16 -20 6 -19 25 -19 25 0 0 14 -90 108 -125 130 -66 41 -173 70 -254 69 -42 -1 -91 -5 -109 -9z"/> <path d="M1610 2278 c-6 -13 -15 -30 -22 -40 -9 -12 -9 -22 -1 -40 l12 -23 0 26 c1 15 8 43 16 63 8 20 13 36 10 36 -3 0 -10 -10 -15 -22z"/> <path d="M1707 2293 c-4 -3 -7 -11 -7 -17 0 -6 5 -5 12 2 6 6 9 14 7 17 -3 3 -9 2 -12 -2z"/> <path d="M1071 2220 c23 -33 43 -60 45 -60 14 0 -1 34 -32 73 -53 68 -63 58 -13 -13z"/> <path d="M1877 2250 c-14 -16 -29 -44 -32 -62 -4 -18 -18 -46 -31 -61 -13 -16 -24 -34 -23 -40 0 -7 6 -4 12 6 7 10 20 28 30 40 10 12 21 34 24 50 3 15 9 30 14 33 5 3 6 -3 2 -13 -3 -10 -3 -15 1 -11 4 3 9 12 10 20 3 13 16 46 23 61 10 17 -7 5 -30 -23z"/> <path d="M1366 2255 c4 -8 8 -15 10 -15 2 0 4 7 4 15 0 8 -4 15 -10 15 -5 0 -7 -7 -4 -15z"/> <path d="M1490 2255 c0 -8 2 -15 4 -15 2 0 6 7 10 15 3 8 1 15 -4 15 -6 0 -10 -7 -10 -15z"/> <path d="M605 2251 c-17 -8 -14 -10 15 -11 19 0 55 -5 79 -11 42 -9 77 0 53 15 -18 11 -127 16 -147 7z"/> <path d="M2089 2243 c-13 -16 -12 -17 4 -4 9 7 17 15 17 17 0 8 -8 3 -21 -13z"/> <path d="M2155 2250 c-3 -5 -1 -10 4 -10 6 0 11 5 11 10 0 6 -2 10 -4 10 -3 0 -8 -4 -11 -10z"/> <path d="M2190 2250 c-11 -7 -6 -10 20 -11 19 0 46 -4 60 -8 42 -12 4 -24 -48 -15 -81 13 -106 11 -144 -10 -38 -21 -53 -45 -20 -31 79 34 152 46 152 26 0 -4 31 -6 68 -3 51 3 76 0 100 -12 36 -19 42 -36 12 -36 -11 0 -20 4 -20 9 0 8 -94 -9 -105 -20 -3 -4 3 -9 15 -12 11 -3 20 -1 20 4 0 5 20 9 45 9 25 0 45 -5 45 -11 0 -6 10 -9 23 -8 12 2 37 -5 55 -14 35 -19 42 -11 15 17 -48 47 -131 98 -190 116 -74 23 -82 24 -103 10z"/> <path d="M810 2226 c0 -3 24 -17 53 -31 28 -15 45 -19 37 -11 -15 15 -90 50 -90 42z"/> <path d="M1126 2215 c4 -11 8 -34 8 -52 1 -17 5 -35 9 -39 4 -4 7 -16 7 -26 0 -11 5 -16 10 -13 18 11 10 70 -16 110 -14 22 -22 31 -18 20z"/> <path d="M1553 2188 c1 -32 6 -44 15 -41 16 7 15 43 -3 67 -13 17 -14 15 -12 -26z"/> <path d="M589 2211 c-103 -20 -270 -180 -269 -258 0 -10 9 0 19 22 18 41 107 129 149 148 12 6 22 14 22 19 0 4 6 8 14 8 8 0 16 6 19 14 8 21 105 34 192 24 43 -4 80 -7 82 -5 2 2 -4 10 -14 18 -12 10 -15 10 -9 1 6 -9 2 -11 -16 -7 -121 27 -127 28 -189 16z"/> <path d="M1477 2213 c-4 -3 -7 -18 -8 -32 0 -24 -1 -24 -9 -6 -7 16 -9 13 -9 -17 -1 -21 1 -38 4 -38 9 0 29 46 30 73 2 29 2 30 -8 20z"/> <path d="M1685 2170 c-9 -28 -15 -53 -13 -56 3 -2 12 19 22 47 9 29 14 54 12 56 -2 2 -12 -19 -21 -47z"/> <path d="M1350 2191 c0 -5 6 -14 14 -21 12 -9 15 -8 13 9 -1 20 -27 31 -27 12z"/> <path d="M1391 2183 c-1 -12 -5 -24 -10 -28 -11 -6 -10 -45 1 -45 9 0 21 65 15 82 -3 7 -6 3 -6 -9z"/> <path d="M965 2181 c-4 -7 -4 -15 -1 -18 3 -4 6 0 6 7 0 7 9 1 20 -13 24 -30 26 -45 5 -27 -10 9 -15 9 -15 1 0 -6 4 -11 8 -11 5 0 9 -6 9 -13 0 -7 10 -27 22 -44 13 -17 21 -37 19 -45 -3 -8 -12 0 -22 20 -10 19 -20 31 -23 28 -3 -3 2 -17 11 -30 19 -30 21 -40 4 -30 -7 4 -8 3 -4 -5 4 -6 11 -9 16 -6 5 3 14 -3 20 -12 9 -15 10 -14 4 6 -5 19 -3 23 9 18 13 -5 14 -1 6 23 -6 15 -19 36 -30 46 -21 19 -25 39 -7 50 7 4 8 3 4 -4 -4 -7 4 -23 19 -38 35 -35 58 -71 51 -82 -3 -5 2 -18 10 -28 13 -16 15 -16 10 -2 -3 12 2 18 17 21 20 4 20 4 2 6 -13 1 -26 14 -37 39 -21 49 -123 159 -133 143z"/> <path d="M2105 2174 c-27 -9 -60 -16 -72 -17 -12 -1 -28 -8 -35 -15 -11 -11 -10 -12 5 -7 10 4 17 2 17 -5 0 -7 12 -3 29 9 16 12 44 24 63 28 l33 6 -19 -21 c-11 -12 -26 -22 -33 -22 -24 0 -123 -71 -123 -87 0 -8 -6 -13 -13 -10 -7 2 -18 -7 -25 -21 -9 -20 -9 -23 0 -14 17 17 39 15 32 -3 -12 -31 6 -14 23 22 24 51 37 62 123 107 41 22 77 43 78 48 2 4 9 5 14 2 7 -4 8 -2 4 4 -9 16 -39 14 -101 -4z"/> <path d="M660 2170 l-25 -8 25 -3 c14 -1 48 -3 75 -4 28 -1 65 -5 83 -9 19 -5 32 -4 32 2 0 9 -33 15 -130 26 -19 3 -46 1 -60 -4z"/> <path d="M1887 2173 c-4 -3 -7 -11 -7 -17 0 -6 5 -5 12 2 6 6 9 14 7 17 -3 3 -9 2 -12 -2z"/> <path d="M2308 2173 c6 -2 18 -2 25 0 6 3 1 5 -13 5 -14 0 -19 -2 -12 -5z"/> <path d="M1532 2150 c0 -14 2 -19 5 -12 2 6 2 18 0 25 -3 6 -5 1 -5 -13z"/> <path d="M1107 2133 c10 -18 20 -28 22 -22 2 6 -6 21 -19 33 l-21 21 18 -32z"/> <path d="M1777 2131 c-19 -33 -21 -41 -8 -41 10 0 36 58 29 65 -2 2 -12 -9 -21 -24z"/> <path d="M866 2141 c6 -6 20 -13 32 -16 11 -2 30 -9 41 -15 12 -6 21 -8 21 -6 0 7 -48 31 -80 41 -18 5 -22 4 -14 -4z"/> <path d="M527 2119 c-22 -11 -37 -22 -34 -25 2 -2 30 2 63 11 66 17 170 20 179 5 4 -6 -13 -10 -43 -10 -86 0 -202 -47 -202 -82 0 -7 10 -2 23 9 28 27 130 61 180 61 21 0 41 2 44 5 2 3 23 -1 45 -9 73 -25 75 -14 3 17 -94 41 -202 49 -258 18z"/> <path d="M1840 2109 c-23 -32 -21 -50 4 -30 12 10 29 61 20 61 -1 0 -12 -14 -24 -31z"/> <path d="M1877 2109 c-9 -17 -17 -36 -17 -42 1 -7 10 5 21 26 24 46 21 59 -4 16z"/> <path d="M2183 2129 c-18 -5 -35 -15 -39 -21 -5 -8 -2 -9 12 -3 10 4 36 10 57 13 20 2 37 8 37 13 0 11 -24 10 -67 -2z"/> <path d="M1967 2102 c-26 -28 -22 -52 4 -25 12 11 20 26 17 33 -2 7 -9 5 -21 -8z"/> <path d="M1670 2086 c0 -9 5 -16 10 -16 6 0 10 4 10 9 0 6 -4 13 -10 16 -5 3 -10 -1 -10 -9z"/> <path d="M956 2061 c16 -16 31 -28 32 -26 8 7 -34 54 -47 55 -9 0 -3 -11 15 -29z"/> <path d="M1246 2060 c7 -38 11 -46 19 -38 3 3 -2 20 -10 39 l-16 34 7 -35z"/> <path d="M2081 2061 c-17 -16 -31 -33 -31 -38 0 -5 -7 -10 -15 -10 -9 0 -14 6 -11 14 10 24 -3 13 -19 -17 -19 -37 -19 -46 0 -30 12 10 15 9 15 -6 0 -16 3 -16 20 6 11 14 20 30 20 37 0 7 15 26 33 42 17 17 29 31 26 31 -4 0 -21 -13 -38 -29z"/> <path d="M2168 2069 c-21 -11 -38 -24 -38 -29 0 -5 -10 -12 -22 -16 -22 -5 -85 -90 -75 -100 3 -3 17 11 32 30 15 20 31 33 36 30 5 -3 6 3 2 13 -3 10 -3 15 1 12 4 -4 21 8 39 25 18 17 41 36 52 43 32 19 13 14 -27 -8z"/> <path d="M1335 2061 c-4 -12 -12 -18 -21 -14 -8 3 -14 -1 -14 -9 0 -19 28 -19 35 0 5 12 8 12 25 -3 26 -23 26 -5 1 24 -19 22 -19 22 -26 2z"/> <path d="M1385 2070 c3 -5 8 -10 11 -10 2 0 4 5 4 10 0 6 -5 10 -11 10 -5 0 -7 -4 -4 -10z"/> <path d="M1425 2070 c3 -5 8 -10 11 -10 2 0 4 5 4 10 0 6 -5 10 -11 10 -5 0 -7 -4 -4 -10z"/> <path d="M1495 2070 c-3 -5 -2 -10 4 -10 5 0 13 5 16 10 3 6 2 10 -4 10 -5 0 -13 -4 -16 -10z"/> <path d="M633 2062 c-47 -5 -41 -20 7 -18 22 0 40 4 40 8 0 11 -13 14 -47 10z"/> <path d="M937 2024 c29 -27 57 -62 63 -78 6 -16 13 -26 17 -23 3 4 -5 27 -18 52 -16 31 -39 54 -69 72 l-45 26 52 -49z"/> <path d="M1177 2052 c6 -24 52 -80 53 -64 0 6 -4 12 -9 12 -5 0 -15 16 -22 35 -13 36 -31 49 -22 17z"/> <path d="M1210 2060 c0 -5 5 -10 11 -10 5 0 7 5 4 10 -3 6 -8 10 -11 10 -2 0 -4 -4 -4 -10z"/> <path d="M1767 2047 c-11 -29 -9 -43 4 -30 6 6 9 19 7 29 -3 18 -4 18 -11 1z"/> <path d="M695 2041 c-14 -13 -94 -18 -98 -7 -4 12 -114 -65 -173 -121 -48 -45 -97 -137 -119 -220 -17 -66 -19 -87 -6 -79 5 4 12 25 16 47 4 23 16 50 27 61 17 17 18 22 7 30 -11 7 -9 8 5 4 13 -5 17 -2 12 9 -3 8 -2 14 2 13 4 -1 33 24 64 54 49 48 67 58 127 74 39 10 71 21 71 24 0 6 -36 5 -50 0 -3 -1 -9 -3 -15 -4 -26 -5 -92 -29 -105 -39 -8 -7 -32 -31 -52 -55 -41 -45 -50 -39 -18 12 27 45 110 113 173 141 103 48 227 41 309 -16 14 -11 31 -19 37 -19 6 0 16 -9 23 -20 17 -27 32 -25 17 3 -11 20 -46 51 -59 52 -21 3 -156 52 -158 57 -5 11 -26 10 -37 -1z"/> <path d="M1545 2037 c-8 -19 -2 -31 13 -26 5 2 6 13 2 24 -7 19 -8 19 -15 2z"/> <path d="M1917 2043 c-4 -3 -7 -13 -7 -22 1 -13 3 -13 11 2 11 19 8 33 -4 20z"/> <path d="M2184 2035 c-18 -13 -18 -14 4 -8 12 3 25 9 28 14 8 14 -10 11 -32 -6z"/> <path d="M870 2036 c0 -7 71 -58 76 -54 7 8 -47 58 -62 58 -8 0 -14 -2 -14 -4z"/> <path d="M1440 2025 c0 -8 4 -15 10 -15 5 0 7 7 4 15 -4 8 -8 15 -10 15 -2 0 -4 -7 -4 -15z"/> <path d="M1161 2022 c-1 -20 28 -86 36 -79 3 4 1 12 -4 19 -6 7 -15 27 -21 43 -6 17 -11 24 -11 17z"/> <path d="M1631 2014 c0 -11 3 -14 6 -6 3 7 2 16 -1 19 -3 4 -6 -2 -5 -13z"/> <path d="M1713 1999 c-12 -30 -11 -32 3 -17 9 8 14 23 12 33 -2 12 -7 7 -15 -16z"/> <path d="M2215 2010 c-52 -25 -34 -25 30 0 28 10 41 19 30 19 -11 0 -38 -8 -60 -19z"/> <path d="M841 2016 c2 -2 15 -9 29 -15 24 -11 24 -11 6 3 -16 13 -49 24 -35 12z"/> <path d="M1280 2007 c0 -10 8 -17 18 -17 9 0 13 4 7 8 -5 4 -13 11 -17 16 -5 5 -8 2 -8 -7z"/> <path d="M1680 2005 c0 -8 2 -15 4 -15 2 0 6 7 10 15 3 8 1 15 -4 15 -6 0 -10 -7 -10 -15z"/> <path d="M1240 2002 c0 -4 9 -13 20 -20 19 -12 20 -11 8 8 -13 20 -28 27 -28 12z"/> <path d="M2150 2003 c0 -5 -14 -24 -30 -43 -16 -19 -30 -29 -30 -21 0 11 -3 11 -15 1 -8 -7 -15 -20 -15 -28 0 -13 3 -12 15 4 13 17 14 17 15 2 0 -9 -4 -20 -10 -23 -16 -10 -11 -25 6 -18 9 3 20 0 24 -8 5 -7 12 -10 17 -6 4 5 1 12 -6 17 -11 6 -7 15 18 39 32 32 38 46 21 56 -5 3 -7 12 -3 20 3 8 2 15 -1 15 -3 0 -6 -3 -6 -7z m4 -58 c-7 -16 -24 -21 -24 -6 0 8 7 13 27 20 1 1 0 -6 -3 -14z"/> <path d="M2390 2000 c0 -5 3 -9 8 -8 16 4 80 -24 97 -42 23 -26 39 -26 25 -1 -5 11 -35 29 -65 40 -64 24 -65 24 -65 11z"/> <path d="M640 1993 c-46 -15 -120 -46 -117 -49 1 -2 31 6 66 16 34 11 80 20 101 20 21 0 42 5 45 10 6 10 -66 13 -95 3z"/> <path d="M1880 1980 c-14 -10 -23 -21 -20 -23 3 -2 16 6 30 19 30 29 25 31 -10 4z"/> <path d="M2314 1974 c-18 -14 -18 -15 6 -8 31 8 50 24 29 24 -8 0 -24 -7 -35 -16z"/> <path d="M1824 1969 c-3 -6 -1 -16 5 -22 8 -8 11 -5 11 11 0 24 -5 28 -16 11z"/> <path d="M1068 1952 c-4 -12 1 -18 13 -19 16 -2 17 2 9 18 -13 24 -16 24 -22 1z"/> <path d="M1920 1959 c0 -5 5 -7 10 -4 6 3 10 8 10 11 0 2 -4 4 -10 4 -5 0 -10 -5 -10 -11z"/> <path d="M715 1951 c-17 -7 -16 -9 9 -15 16 -4 31 -5 34 -1 3 3 -2 5 -12 5 -9 0 -14 5 -11 10 7 11 7 11 -20 1z"/> <path d="M840 1949 c-8 -5 -10 -9 -4 -9 5 0 19 -7 30 -15 17 -13 16 -14 -13 -5 -18 4 -37 11 -43 15 -5 3 -10 2 -10 -4 0 -11 25 -19 78 -25 36 -4 40 4 15 26 -29 24 -38 27 -53 17z"/> <path d="M964 1947 c3 -10 6 -25 6 -32 0 -7 9 -23 21 -36 11 -13 17 -17 13 -9 -5 8 -9 22 -9 31 -1 8 -10 26 -19 40 -13 16 -16 18 -12 6z"/> <path d="M1245 1950 c3 -5 8 -10 11 -10 2 0 4 5 4 10 0 6 -5 10 -11 10 -5 0 -7 -4 -4 -10z"/> <path d="M2321 1948 c-52 -7 -78 -18 -134 -56 -39 -26 -73 -53 -75 -60 -2 -8 18 2 44 22 84 62 122 78 196 83 56 3 77 0 113 -17 76 -37 74 -47 -8 -36 l-72 11 45 6 45 6 -52 1 c-32 1 -53 -2 -53 -9 0 -6 -9 -8 -20 -4 -11 4 -20 2 -20 -4 0 -6 -9 -11 -19 -11 -11 0 -23 -5 -26 -10 -6 -10 22 -9 40 2 16 9 155 0 186 -12 16 -7 31 -21 35 -32 4 -12 11 -17 21 -13 13 4 14 3 3 -10 -10 -12 -10 -15 4 -15 15 0 38 -39 66 -117 7 -18 16 -33 21 -33 5 0 3 13 -6 30 -8 16 -15 34 -15 40 0 20 -49 114 -74 143 -14 16 -26 32 -28 35 -2 4 -22 20 -46 36 -48 33 -77 37 -171 24z"/> <path d="M1630 1940 c-9 -6 -10 -10 -3 -10 6 0 15 5 18 10 8 12 4 12 -15 0z"/> <path d="M1965 1940 c-3 -5 -1 -10 4 -10 6 0 11 5 11 10 0 6 -2 10 -4 10 -3 0 -8 -4 -11 -10z"/> <path d="M1995 1939 c-11 -16 -1 -19 13 -3 7 8 8 14 3 14 -5 0 -13 -5 -16 -11z"/> <path d="M1130 1910 c0 -5 5 -10 11 -10 5 0 7 5 4 10 -3 6 -8 10 -11 10 -2 0 -4 -4 -4 -10z"/> <path d="M2298 1913 c7 -3 16 -2 19 1 4 3 -2 6 -13 5 -11 0 -14 -3 -6 -6z"/> <path d="M1276 1893 c-6 -14 -5 -15 5 -6 7 7 10 15 7 18 -3 3 -9 -2 -12 -12z"/> <path d="M2228 1875 c-26 -19 -54 -35 -62 -35 -7 0 -19 -7 -26 -15 -22 -27 8 -17 61 20 28 19 55 35 59 35 4 0 10 7 14 15 7 19 9 20 -46 -20z"/> <path d="M546 1876 c-26 -14 -64 -39 -82 -57 -32 -31 -49 -30 -21 1 6 8 1 6 -12 -5 -13 -11 -41 -56 -62 -100 -30 -61 -34 -74 -17 -55 42 46 160 130 182 130 19 0 -2 -20 -59 -58 -96 -65 -171 -157 -195 -241 -14 -50 3 -35 35 31 29 61 94 152 102 144 2 -2 -11 -26 -30 -53 -29 -39 -62 -111 -44 -93 15 15 87 142 83 148 -8 14 103 93 155 110 55 19 81 47 38 40 -13 -2 -23 -9 -21 -16 1 -7 -10 -12 -30 -12 -25 0 -29 3 -18 10 26 17 2 11 -53 -14 -29 -13 -71 -38 -92 -57 -38 -33 -40 -24 -4 16 10 11 19 25 21 30 2 6 6 9 10 8 4 -2 26 6 50 16 62 28 159 46 193 36 27 -7 28 -8 10 -16 -14 -6 -8 -7 17 -3 21 3 42 1 50 -5 7 -6 28 -23 46 -37 38 -30 36 -44 -2 -19 -14 10 -26 13 -26 7 0 -15 60 -36 98 -34 19 2 45 -4 58 -12 15 -11 25 -12 29 -5 10 16 2 20 -59 26 -30 3 -53 9 -50 14 2 4 -8 15 -23 23 -15 8 -22 15 -15 16 7 0 11 4 8 9 -3 5 -16 7 -28 3 -13 -3 -19 -1 -15 5 4 7 -12 16 -42 24 -28 7 -48 15 -46 19 7 11 -104 0 -147 -15 -50 -17 -60 -13 -25 9 26 18 143 46 190 46 39 0 137 -29 137 -41 0 -5 -5 -9 -12 -9 -14 0 19 -32 51 -50 19 -10 21 -14 10 -22 -11 -8 -10 -8 4 -4 10 3 21 6 25 6 3 0 -9 13 -27 28 -36 30 -55 89 -24 78 13 -5 14 -4 3 9 -13 16 -35 21 -25 6 11 -18 -13 -21 -55 -6 -68 24 -185 19 -244 -9z m81 -72 c-3 -3 -12 -4 -19 -1 -8 3 -5 6 6 6 11 1 17 -2 13 -5z"/> <path d="M1962 1880 c-7 -11 -9 -20 -4 -20 4 0 15 9 25 20 11 14 13 20 4 20 -7 0 -18 -9 -25 -20z"/> <path d="M911 1862 c7 -12 17 -18 22 -15 4 3 17 -3 28 -13 16 -14 19 -15 14 -2 -5 13 -22 24 -68 46 -5 2 -3 -5 4 -16z"/> <path d="M1995 1860 c3 -5 8 -10 11 -10 2 0 4 5 4 10 0 6 -5 10 -11 10 -5 0 -7 -4 -4 -10z"/> <path d="M2022 1840 c-12 -12 -22 -23 -22 -26 0 -8 36 14 50 30 18 23 -2 19 -28 -4z"/> <path d="M2390 1842 c0 -9 -60 -33 -69 -28 -3 2 -12 -2 -19 -10 -19 -21 3 -18 58 7 35 16 56 19 95 14 46 -6 49 -5 30 9 -21 16 -95 22 -95 8z"/> <path d="M2215 1830 c-3 -6 1 -7 9 -4 18 7 21 14 7 14 -6 0 -13 -4 -16 -10z"/> <path d="M936 1805 c-3 -8 -1 -15 4 -15 13 0 22 18 11 24 -5 3 -11 -1 -15 -9z"/> <path d="M2266 1811 c-4 -5 3 -7 14 -4 23 6 26 13 6 13 -8 0 -17 -4 -20 -9z"/> <path d="M1041 1793 c0 -12 -4 -30 -7 -40 -5 -17 -5 -17 6 0 6 10 9 28 7 40 -4 22 -4 22 -6 0z"/> <path d="M2021 1779 c-36 -35 -42 -51 -9 -23 54 47 61 54 51 54 -6 0 -25 -14 -42 -31z"/> <path d="M2165 1798 c-41 -24 -46 -36 -20 -42 26 -7 35 -26 12 -26 -7 0 -18 -9 -24 -19 -12 -19 -11 -19 25 -4 56 22 60 32 24 45 l-32 12 22 23 c24 26 22 28 -7 11z"/> <path d="M2230 1803 c-18 -8 -44 -33 -33 -33 4 0 19 9 33 20 26 20 26 23 0 13z"/> <path d="M2420 1800 c-16 -5 -4 -6 32 -3 l56 6 58 -54 c31 -30 52 -45 46 -33 -6 11 -28 37 -49 57 -31 31 -44 37 -78 36 -22 -1 -51 -5 -65 -9z"/> <path d="M655 1789 c7 -11 44 -18 50 -9 3 4 -8 10 -25 12 -16 2 -27 1 -25 -3z"/> <path d="M2235 1764 l-30 -15 30 6 c17 4 34 11 40 16 13 13 -5 10 -40 -7z"/> <path d="M2434 1771 c3 -4 20 -12 38 -17 l33 -8 -45 -4 -45 -4 55 -18 c30 -9 64 -21 75 -26 19 -7 19 -6 5 12 -14 17 -14 18 2 6 10 -8 16 -17 15 -20 -1 -4 11 -20 27 -37 15 -16 51 -60 78 -97 53 -71 75 -91 39 -35 -12 17 -41 62 -64 99 -25 42 -47 66 -55 63 -7 -3 -11 -1 -8 4 8 13 -33 52 -78 72 -43 20 -81 25 -72 10z"/> <path d="M2049 1753 c-13 -17 -13 -17 6 -3 11 8 22 16 24 17 2 2 0 3 -6 3 -6 0 -17 -8 -24 -17z"/> <path d="M1054 1745 c-3 -8 -4 -20 -1 -27 3 -8 6 -6 6 6 1 12 6 16 15 13 10 -4 13 -1 9 9 -7 18 -22 18 -29 -1z"/> <path d="M2315 1740 c3 -5 12 -7 20 -3 21 7 19 13 -6 13 -11 0 -18 -4 -14 -10z"/> <path d="M660 1732 c0 -4 14 -9 31 -10 19 -2 28 2 24 8 -7 12 -55 14 -55 2z"/> <path d="M2060 1730 c0 -5 4 -10 9 -10 6 0 13 5 16 10 3 6 -1 10 -9 10 -9 0 -16 -4 -16 -10z"/> <path d="M510 1710 c-19 -11 -30 -19 -24 -20 15 0 64 24 64 33 0 9 1 9 -40 -13z"/> <path d="M608 1718 c-27 -9 -39 -28 -18 -28 16 0 60 23 60 32 0 10 -7 9 -42 -4z"/> <path d="M770 1720 c8 -5 20 -10 25 -10 6 0 3 5 -5 10 -8 5 -19 10 -25 10 -5 0 -3 -5 5 -10z"/> <path d="M2275 1705 l-30 -14 35 6 c19 3 44 10 55 14 18 7 17 8 -5 8 -14 0 -38 -6 -55 -14z"/> <path d="M664 1703 c7 -7 97 -5 105 3 2 2 -22 4 -54 4 -32 0 -55 -3 -51 -7z"/> <path d="M805 1700 c-19 -8 -19 -9 3 -9 16 -1 21 -5 16 -13 -4 -7 -4 -10 0 -6 5 4 19 3 32 -2 14 -6 33 -6 46 0 20 8 19 9 -13 9 -23 1 -39 7 -43 16 -6 17 -12 17 -41 5z"/> <path d="M965 1701 c-3 -5 -1 -12 5 -16 5 -3 10 1 10 9 0 18 -6 21 -15 7z"/> <path d="M1505 1697 c-33 -5 -72 -9 -87 -10 -16 -1 -28 -6 -28 -10 0 -5 -4 -5 -10 -2 -5 3 -10 2 -10 -2 0 -5 -14 -17 -30 -27 -17 -9 -28 -22 -25 -27 4 -5 -1 -9 -10 -9 -9 0 -14 -4 -11 -9 3 -4 -1 -17 -9 -27 -8 -10 -15 -28 -15 -38 0 -11 -3 -17 -6 -13 -4 3 -12 0 -20 -7 -14 -15 -64 -10 -64 7 0 5 -9 -2 -20 -15 -23 -30 -69 -51 -101 -46 -12 2 -31 15 -43 31 -17 23 -19 32 -9 57 7 18 7 32 2 36 -5 3 -13 -6 -19 -20 -5 -14 -14 -26 -19 -26 -6 0 -8 -6 -5 -14 4 -9 -3 -13 -20 -13 -14 0 -33 -9 -43 -19 -13 -13 -14 -16 -3 -12 8 3 26 9 39 13 21 6 22 5 10 -8 -8 -8 -18 -12 -24 -9 -5 3 -2 -4 8 -15 18 -21 18 -22 0 -32 -23 -13 -12 -14 21 -1 22 8 24 14 19 43 -9 59 11 48 37 -19 13 -35 28 -64 33 -64 4 0 6 4 3 8 -3 5 8 7 23 4 16 -2 32 1 36 9 5 8 4 10 -3 5 -7 -4 -12 -3 -12 2 0 5 -12 7 -26 4 -18 -3 -25 -1 -20 6 3 6 2 12 -4 14 -5 1 12 3 39 3 37 0 47 -3 43 -14 -3 -9 0 -12 9 -9 8 3 13 13 13 22 -1 9 6 16 15 16 9 0 22 5 28 11 18 18 30 2 37 -50 5 -40 17 -63 57 -113 35 -44 49 -70 46 -85 -2 -14 0 -20 6 -16 6 4 8 -2 5 -14 -3 -11 -1 -27 3 -36 6 -10 5 -18 -1 -22 -16 -10 -12 -25 5 -19 17 7 19 -9 5 -37 -7 -13 -7 -19 0 -19 5 0 10 5 10 10 0 17 18 11 23 -7 2 -10 3 -7 2 7 -12 104 -93 313 -126 323 -22 6 -35 63 -19 82 7 8 16 13 20 10 10 -6 24 12 40 55 20 52 48 88 82 106 30 15 115 35 153 35 11 0 23 5 27 12 5 8 8 6 8 -5 0 -11 8 -18 19 -18 28 0 68 -36 98 -88 14 -26 39 -67 55 -92 34 -53 34 -93 1 -98 -13 -2 -23 -9 -23 -17 0 -7 -13 -42 -30 -77 -23 -48 -30 -77 -30 -123 0 -33 -11 -123 -24 -200 -14 -77 -32 -202 -41 -277 -14 -122 -14 -140 -1 -172 8 -20 20 -36 27 -36 8 0 8 4 1 13 -19 22 -26 88 -11 98 10 6 11 9 2 9 -22 0 -14 29 11 46 15 9 23 21 19 30 -4 12 -8 12 -20 -3 -13 -16 -14 -15 -9 16 3 18 15 41 26 51 11 10 20 21 20 25 0 5 -10 0 -22 -11 -20 -18 -21 -18 -15 -1 4 10 7 21 7 23 0 2 9 4 20 4 11 0 20 5 20 11 0 6 -9 8 -20 4 -16 -5 -20 -2 -20 15 0 17 4 19 28 13 l27 -6 -30 26 c-23 20 -26 26 -13 27 9 0 20 -4 23 -10 3 -5 11 -10 16 -10 6 0 1 12 -10 26 -22 28 -29 60 -10 49 6 -4 5 2 -2 13 -17 27 -3 41 16 16 8 -10 15 -14 15 -8 0 6 -6 17 -14 23 -9 8 -13 25 -11 49 3 20 7 78 11 129 7 89 9 95 50 150 45 60 61 105 50 147 -10 39 22 42 58 7 29 -28 33 -29 76 -20 43 10 80 37 80 58 0 6 -8 8 -17 5 -15 -5 -15 -4 -4 4 12 9 13 17 3 51 -13 42 -43 71 -74 71 -23 0 -23 -16 -1 -29 10 -5 15 -13 11 -17 -4 -4 -15 -1 -25 7 -15 12 -16 12 -10 -4 4 -10 7 -21 7 -23 0 -2 10 -4 23 -4 21 -1 22 -1 3 -15 -22 -17 -40 -20 -32 -6 6 9 -35 24 -43 16 -8 -9 42 -55 61 -55 22 0 50 42 42 64 -3 9 -1 16 5 16 14 0 25 -43 17 -68 -4 -11 -21 -27 -38 -35 -28 -13 -36 -14 -59 -2 -14 8 -36 29 -49 47 -15 23 -20 27 -17 12 5 -23 -20 -29 -38 -10 -19 20 -55 87 -55 103 0 9 -3 13 -7 10 -3 -4 -17 6 -31 21 -14 15 -28 27 -31 28 -3 0 -14 4 -23 7 -33 13 -43 13 -103 4z"/> <path d="M2395 1700 c-27 -6 -26 -7 20 -14 87 -14 145 -42 192 -93 49 -53 89 -123 102 -180 l9 -38 1 35 c0 19 -8 53 -18 75 -24 53 -111 157 -154 184 -41 25 -110 39 -152 31z"/> <path d="M2070 1690 c-13 -8 -13 -10 2 -10 9 0 20 5 23 10 8 13 -5 13 -25 0z"/> <path d="M2145 1680 c-13 -6 -15 -9 -5 -9 8 0 22 4 30 9 18 12 2 12 -25 0z"/> <path d="M445 1670 c-3 -6 1 -7 9 -4 9 3 16 1 16 -6 0 -6 5 -8 11 -4 8 4 7 9 -2 15 -18 11 -26 11 -34 -1z"/> <path d="M2180 1653 c0 -10 4 -14 8 -8 4 6 11 13 16 18 5 4 2 7 -7 7 -10 0 -17 -8 -17 -17z"/> <path d="M2290 1660 c-17 -6 -9 -7 25 -4 35 4 67 -1 105 -14 l55 -20 -91 5 c-58 3 -99 1 -110 -6 -15 -8 -9 -9 27 -5 54 7 178 -16 249 -47 53 -23 100 -69 100 -98 0 -9 6 -26 14 -37 13 -17 13 -13 3 29 -15 57 -74 130 -129 158 -76 39 -193 57 -248 39z"/> <path d="M953 1645 c0 -8 4 -12 9 -9 4 3 8 9 8 15 0 5 -4 9 -8 9 -5 0 -9 -7 -9 -15z"/> <path d="M2040 1645 c7 -8 20 -15 29 -14 12 0 11 2 -4 9 -18 7 -16 8 10 12 27 5 26 5 -9 7 -33 1 -37 -1 -26 -14z"/> <path d="M405 1588 c-32 -55 -34 -60 -11 -39 14 14 26 21 26 18 0 -4 17 3 38 16 33 21 92 48 132 61 9 2 5 5 -8 5 -13 1 -36 -6 -50 -14 -103 -56 -139 -62 -92 -15 22 22 25 30 11 30 -5 0 -25 -28 -46 -62z"/> <path d="M765 1639 c-18 -9 -18 -9 2 -5 13 2 26 0 29 -5 3 -5 9 -7 14 -4 4 3 10 -2 14 -10 3 -8 12 -15 20 -15 18 0 30 30 13 35 -34 10 -74 12 -92 4z"/> <path d="M888 1643 c6 -2 18 -2 25 0 6 3 1 5 -13 5 -14 0 -19 -2 -12 -5z"/> <path d="M1898 1643 c7 -3 16 -2 19 1 4 3 -2 6 -13 5 -11 0 -14 -3 -6 -6z"/> <path d="M1953 1627 c20 -16 32 -39 43 -87 26 -108 26 -110 8 -110 -11 0 -15 -6 -11 -20 3 -11 0 -20 -5 -20 -6 0 -5 -6 2 -15 9 -11 9 -15 1 -15 -9 0 -9 -5 0 -22 10 -18 9 -20 -5 -15 -9 4 -16 2 -16 -4 0 -5 10 -13 23 -18 26 -10 42 6 25 26 -6 8 -7 13 -1 13 6 0 8 11 5 25 -3 15 7 47 27 85 17 33 28 60 23 60 -5 0 -15 -11 -22 -26 l-14 -25 -13 26 c-8 14 -11 30 -8 36 4 5 1 17 -6 25 -10 13 -8 14 14 10 15 -3 27 0 27 5 0 5 -11 9 -25 9 -19 0 -25 5 -25 22 0 21 0 21 15 2 12 -14 14 -15 9 -2 -4 12 -1 16 13 14 10 -2 12 -1 6 1 -7 3 -13 8 -13 13 0 5 -7 7 -15 4 -8 -3 -24 1 -37 10 -36 25 -58 20 -25 -7z"/> <path d="M2124 1641 c3 -5 -4 -11 -15 -14 -26 -7 -15 -27 14 -26 21 0 21 1 3 8 -19 7 -19 8 3 14 22 5 22 27 0 27 -6 0 -8 -4 -5 -9z"/> <path d="M630 1609 c-19 -10 -44 -18 -55 -19 -24 0 -95 -24 -152 -50 -45 -21 -93 -81 -93 -115 0 -14 7 -9 23 20 20 36 124 121 135 110 2 -2 16 2 31 9 14 8 52 17 83 21 32 4 62 13 68 20 6 7 20 10 32 7 14 -3 19 -1 14 6 -10 17 -45 13 -86 -9z"/> <path d="M1026 1618 c3 -5 10 -6 15 -3 13 9 11 12 -6 12 -8 0 -12 -4 -9 -9z"/> <path d="M1070 1597 c-28 -14 -38 -37 -16 -37 18 0 22 -16 5 -22 -9 -3 -9 -10 0 -26 9 -17 18 -21 34 -16 43 13 78 58 37 47 -11 -3 -18 -8 -16 -12 3 -4 -4 -8 -15 -8 -10 -1 -19 2 -19 8 0 5 6 9 13 9 11 0 43 39 35 44 -2 1 -10 7 -18 13 -12 9 -21 9 -40 0z m40 -17 c0 -5 -9 -10 -21 -10 -11 0 -17 5 -14 10 3 6 13 10 21 10 8 0 14 -4 14 -10z"/> <path d="M2230 1599 c0 -5 5 -7 10 -4 6 3 10 8 10 11 0 2 -4 4 -10 4 -5 0 -10 -5 -10 -11z"/> <path d="M708 1593 c7 -3 16 -2 19 1 4 3 -2 6 -13 5 -11 0 -14 -3 -6 -6z"/> <path d="M866 1581 c-4 -5 3 -7 14 -4 23 6 26 13 6 13 -8 0 -17 -4 -20 -9z"/> <path d="M2085 1580 c-3 -5 -2 -10 4 -10 6 0 8 -7 5 -15 -4 -8 -10 -12 -15 -10 -9 6 -49 -30 -49 -45 0 -5 5 -10 10 -10 6 0 10 7 10 15 0 9 10 20 23 26 12 5 33 16 46 23 23 14 23 14 3 25 -25 14 -29 14 -37 1z"/> <path d="M2420 1586 c0 -2 26 -19 57 -37 31 -18 51 -35 45 -37 -7 -2 7 -18 31 -35 62 -45 93 -85 123 -159 21 -53 24 -57 20 -26 -9 72 -95 208 -132 208 -6 0 -15 7 -18 16 -6 15 -4 15 11 3 16 -13 17 -12 5 3 -19 24 -142 80 -142 64z"/> <path d="M567 1554 c-16 -9 -27 -18 -24 -20 3 -3 20 4 38 15 39 24 28 28 -14 5z"/> <path d="M882 1549 c-14 -23 -15 -32 -3 -24 5 3 12 1 16 -5 3 -5 1 -10 -6 -10 -7 0 -9 -3 -6 -6 4 -4 14 -1 22 6 13 11 13 15 3 22 -11 6 -11 10 0 17 11 7 11 9 0 14 -8 3 -20 -3 -26 -14z"/> <path d="M940 1560 c0 -5 4 -10 9 -10 6 0 13 5 16 10 3 6 -1 10 -9 10 -9 0 -16 -4 -16 -10z"/> <path d="M1328 1542 c-5 -35 1 -59 11 -43 4 6 8 -12 8 -41 l1 -52 -23 26 c-13 15 -35 30 -49 34 -23 5 -26 3 -26 -20 0 -26 13 -35 25 -16 12 19 22 10 17 -16 -3 -16 3 -35 15 -52 11 -15 23 -39 27 -54 3 -16 11 -28 17 -28 6 0 9 9 6 20 -3 11 3 44 13 73 13 37 16 63 11 92 -7 36 -36 105 -45 105 -2 0 -6 -13 -8 -28z m22 -192 c0 -21 -25 -4 -28 20 -4 21 -2 22 12 7 9 -8 16 -21 16 -27z"/> <path d="M1652 1525 c-6 -25 -12 -64 -12 -88 0 -53 24 -145 33 -130 4 6 2 24 -3 39 -14 36 -6 57 19 49 17 -5 19 -1 18 27 0 18 2 40 6 48 8 18 -9 48 -20 36 -4 -5 -2 -11 5 -13 6 -3 12 -9 12 -14 0 -6 -5 -7 -12 -3 -6 4 -8 3 -4 -4 3 -6 2 -13 -3 -16 -14 -9 -25 34 -12 47 14 14 14 29 -2 51 -11 15 -14 12 -25 -29z"/> <path d="M1021 1539 c-1 -15 8 -37 19 -50 10 -13 19 -19 20 -13 0 6 -3 14 -7 18 -5 4 -13 22 -20 39 -11 31 -11 31 -12 6z"/> <path d="M2325 1537 c-11 -7 -36 -14 -55 -16 -19 -2 -37 -5 -40 -8 -3 -3 18 -2 45 1 28 3 61 6 75 7 14 0 19 3 12 6 -6 2 -10 9 -6 14 8 13 -8 11 -31 -4z"/> <path d="M454 1518 c-65 -45 -147 -181 -158 -263 -5 -31 0 -23 20 32 14 40 39 87 55 104 16 17 29 35 29 40 0 6 21 32 46 59 52 56 53 58 8 28z"/> <path d="M645 1530 c-13 -6 -15 -9 -5 -9 8 0 22 4 30 9 18 12 2 12 -25 0z"/> <path d="M1480 1518 c0 -9 -6 -19 -12 -21 -8 -3 -7 -6 4 -6 22 -1 29 11 17 29 -7 13 -9 12 -9 -2z"/> <path d="M1563 1514 c-3 -9 0 -20 8 -25 19 -12 29 -11 29 1 0 6 -6 9 -12 8 -7 -2 -12 5 -10 15 4 21 -7 22 -15 1z"/> <path d="M2477 1519 c7 -7 15 -10 18 -7 3 3 -2 9 -12 12 -14 6 -15 5 -6 -5z"/> <path d="M598 1513 c7 -3 16 -2 19 1 4 3 -2 6 -13 5 -11 0 -14 -3 -6 -6z"/> <path d="M2395 1510 c3 -5 10 -10 16 -10 5 0 9 5 9 10 0 6 -7 10 -16 10 -8 0 -12 -4 -9 -10z"/> <path d="M498 1475 c-25 -19 -59 -51 -75 -72 -15 -21 -35 -45 -44 -53 -16 -15 -73 -193 -85 -265 -10 -61 5 -35 22 36 20 88 46 153 54 139 4 -7 12 7 18 32 20 77 64 134 161 205 2 2 2 5 0 7 -2 3 -25 -11 -51 -29z"/> <path d="M655 1500 c-3 -6 1 -7 9 -4 18 7 21 14 7 14 -6 0 -13 -4 -16 -10z"/> <path d="M2165 1500 c-16 -7 -17 -9 -3 -9 9 -1 20 4 23 9 7 11 7 11 -20 0z"/> <path d="M2450 1490 c13 -11 19 -20 13 -20 -5 0 -13 3 -16 7 -4 3 -17 7 -30 8 -12 1 -35 4 -52 7 -16 3 -24 3 -17 1 7 -3 10 -8 7 -13 -3 -4 14 -11 37 -15 58 -10 100 -28 143 -62 45 -35 69 -74 101 -160 13 -37 22 -57 19 -43 -15 69 -13 79 5 25 29 -86 30 -88 36 -82 17 17 -68 228 -114 282 -20 24 -82 69 -82 60 0 -3 -10 1 -22 9 -34 24 -56 20 -28 -4z m113 -68 c9 -8 17 -20 17 -26 0 -7 -3 -8 -8 -1 -4 6 -26 23 -49 38 -24 15 -43 30 -43 32 0 8 62 -25 83 -43z"/> <path d="M599 1474 c-22 -27 -93 -71 -107 -67 -16 6 -51 -36 -52 -61 0 -11 -18 -49 -40 -85 -49 -82 -73 -138 -61 -145 5 -3 12 9 16 27 7 27 9 29 12 10 2 -12 -3 -43 -12 -69 -8 -26 -14 -48 -12 -51 6 -5 34 74 46 126 12 54 52 104 122 152 29 21 54 45 54 55 0 9 7 20 15 24 49 25 74 34 122 45 34 9 44 14 26 14 -15 1 -38 -3 -52 -9 -15 -5 -26 -6 -26 -1 0 12 57 25 93 22 16 -1 27 2 27 10 0 8 -14 10 -49 6 -63 -7 -156 -67 -234 -150 -43 -45 -55 -54 -44 -32 8 17 36 50 62 75 26 25 62 59 79 76 18 17 38 34 46 37 12 4 12 6 -1 6 -9 1 -22 -6 -30 -15z m-106 -94 c-6 -24 -33 -49 -33 -31 0 18 19 51 29 51 5 0 7 -9 4 -20z"/> <path d="M800 1469 c28 -13 74 -18 62 -8 -4 4 -25 10 -47 13 -36 6 -37 5 -15 -5z"/> <path d="M1452 1465 c-51 -22 -65 -67 -63 -207 0 -64 8 -149 16 -188 17 -83 19 -130 5 -130 -6 0 -10 -23 -9 -52 1 -49 2 -51 9 -19 5 19 6 40 3 48 -3 7 -1 13 4 13 11 0 14 -13 16 -74 1 -24 5 -42 9 -40 4 3 10 -12 13 -33 3 -21 10 -54 15 -74 6 -20 10 -54 10 -76 0 -25 6 -46 16 -54 15 -12 16 -10 11 16 -4 17 -11 68 -17 115 -6 47 -27 157 -47 245 -25 116 -36 194 -40 286 -7 155 3 194 54 216 43 18 102 10 132 -18 11 -11 21 -15 21 -9 0 17 -63 50 -95 50 -16 -1 -45 -7 -63 -15z"/> <path d="M1790 1477 c0 -2 14 -16 32 -33 l31 -29 -23 33 c-20 27 -40 42 -40 29z"/> <path d="M1720 1440 c0 -11 7 -20 15 -20 8 0 15 9 15 20 0 11 -7 20 -15 20 -8 0 -15 -9 -15 -20z"/> <path d="M2165 1450 c-2 -4 26 -10 63 -13 37 -4 87 -13 112 -22 29 -9 34 -13 15 -10 -20 3 -6 -7 40 -29 39 -18 82 -46 97 -62 36 -38 66 -110 83 -192 10 -50 13 -58 14 -32 1 39 -20 124 -38 159 -7 12 -10 25 -7 29 3 3 21 -27 39 -66 17 -40 35 -72 39 -72 10 0 -55 142 -81 179 -45 63 -144 128 -198 131 -10 0 -53 2 -96 4 -42 2 -79 0 -82 -4z m255 -50 c8 -5 11 -10 5 -10 -5 0 -17 5 -25 10 -8 5 -10 10 -5 10 6 0 17 -5 25 -10z m110 -95 c14 -19 14 -19 -2 -6 -10 7 -18 18 -18 24 0 6 1 8 3 6 1 -2 9 -13 17 -24z"/> <path d="M1494 1438 c-4 -7 -3 -8 4 -4 11 6 18 -19 13 -46 0 -5 4 -8 9 -8 6 0 10 -8 10 -17 0 -15 2 -16 10 -3 8 13 10 13 15 -1 3 -8 4 -24 3 -34 -3 -28 13 -116 21 -111 3 2 5 -15 4 -37 -1 -23 -4 -80 -7 -127 -7 -140 -18 -254 -26 -269 -8 -16 -27 79 -36 184 -3 39 -8 86 -11 105 -2 19 -6 53 -8 75 -2 22 -8 69 -14 104 -6 35 -8 67 -6 72 3 4 1 10 -5 14 -11 7 -12 6 -14 -50 -2 -49 8 -134 27 -245 8 -47 15 -99 15 -115 0 -17 7 -87 16 -155 29 -240 29 -223 -9 -260 -23 -22 -34 -28 -38 -18 -3 7 -6 3 -6 -9 -1 -13 5 -23 12 -22 18 1 79 76 83 102 1 12 10 87 19 167 9 80 20 161 24 180 10 43 12 67 14 147 1 34 5 59 9 57 4 -3 8 8 8 25 0 16 3 36 6 45 3 9 1 16 -5 16 -6 0 -12 -17 -13 -37 -1 -24 -4 -14 -7 27 -3 36 -2 68 2 71 5 3 1 13 -7 22 -9 8 -16 23 -16 32 0 17 -38 77 -52 83 -4 2 -8 15 -8 28 0 25 -23 33 -36 12z"/> <path d="M1960 1436 c-6 -8 -19 -12 -27 -9 -11 4 -14 2 -9 -5 5 -8 -5 -10 -31 -7 -27 4 -34 2 -23 -5 25 -16 65 -11 88 10 21 19 27 30 18 30 -2 0 -9 -6 -16 -14z"/> <path d="M1173 1423 c-7 -3 -13 -11 -13 -19 0 -8 -6 -11 -15 -8 -8 4 -15 5 -15 3 0 -2 -4 -19 -9 -37 -6 -20 -6 -32 0 -32 5 0 9 6 9 13 0 6 14 27 31 45 31 33 35 43 12 35z"/> <path d="M2970 1343 c-10 -75 -21 -132 -45 -238 -22 -93 -101 -276 -158 -365 -59 -91 -112 -166 -142 -200 -100 -114 -241 -236 -330 -285 -27 -15 -57 -33 -65 -40 -8 -7 -33 -20 -55 -30 -22 -10 -67 -31 -100 -46 -33 -16 -69 -30 -80 -32 -11 -2 -27 -7 -35 -10 -38 -15 -133 -38 -160 -39 -16 -1 -30 -4 -30 -7 0 -4 -8 -8 -17 -9 -10 0 -41 -4 -69 -8 l-52 -6 2 40 c1 38 2 40 19 25 9 -9 17 -11 17 -5 0 12 -51 55 -58 48 -2 -3 -1 -32 3 -66 l7 -62 72 6 c39 3 92 12 118 20 26 7 49 12 51 10 2 -2 24 3 48 12 24 8 51 17 59 19 125 31 371 166 488 268 47 41 158 151 198 197 81 94 226 341 239 407 2 12 11 35 19 52 9 17 14 31 12 31 -3 0 2 16 10 36 8 20 17 50 19 68 3 17 9 47 15 66 12 38 26 230 17 230 -3 0 -10 -39 -17 -87z"/> <path d="M15 1330 c2 -52 9 -111 15 -130 6 -19 12 -49 15 -66 2 -18 11 -48 19 -68 8 -20 13 -36 10 -36 -2 0 2 -13 10 -29 9 -16 12 -31 9 -35 -4 -3 -1 -6 5 -6 7 0 11 -3 10 -7 -3 -17 15 -63 25 -63 6 0 8 -3 5 -6 -10 -9 50 -121 121 -229 88 -134 262 -308 396 -396 98 -65 252 -146 292 -154 12 -2 35 -11 52 -19 17 -9 31 -14 31 -11 0 2 23 -4 50 -15 60 -24 60 -24 60 -6 0 9 -9 12 -27 8 l-28 -5 28 30 c27 29 63 120 52 132 -3 2 -13 -5 -21 -18 -13 -19 -18 -20 -32 -9 -15 12 -16 11 -3 -4 7 -10 17 -15 22 -12 5 3 9 1 9 -5 0 -5 -5 -13 -10 -16 -6 -4 -8 -10 -5 -14 2 -5 -6 -20 -19 -34 -26 -28 -41 -27 -123 9 -17 8 -36 14 -42 14 -10 0 -191 90 -201 100 -10 10 -101 70 -106 70 -8 0 -194 163 -216 188 -77 93 -140 177 -173 232 -49 80 -115 211 -115 226 0 6 -7 24 -15 41 -8 16 -17 40 -19 54 -2 13 -5 25 -7 27 -1 1 -2 5 -3 10 -1 4 -4 12 -8 18 -4 6 -9 21 -11 35 -3 13 -10 43 -16 67 -7 24 -18 84 -26 135 l-14 92 4 -95z"/> <path d="M707 1409 c-40 -9 -117 -46 -117 -55 0 -3 4 -2 10 1 5 3 23 8 39 10 44 5 71 15 71 26 0 5 5 9 11 9 5 0 7 -6 3 -12 -4 -7 3 -4 16 7 13 11 20 14 16 8 -8 -15 12 -17 34 -3 8 5 19 5 25 1 14 -12 65 -20 65 -11 0 18 -121 32 -173 19z"/> <path d="M945 1410 c-4 -6 8 -17 27 -26 31 -14 31 -15 6 -11 -16 2 -28 1 -28 -4 0 -11 40 -22 48 -14 12 12 8 55 -4 55 -7 0 -19 3 -27 6 -8 3 -18 0 -22 -6z"/> <path d="M1479 1382 c-3 -20 -2 -29 4 -23 5 5 7 19 5 32 -3 20 -5 19 -9 -9z"/> <path d="M2240 1400 c8 -5 28 -10 44 -10 39 0 30 6 -19 13 -27 4 -35 3 -25 -3z"/> <path d="M1850 1381 c0 -6 12 -16 26 -21 33 -13 34 -13 34 5 0 9 -6 12 -15 9 -8 -4 -22 -1 -30 6 -11 9 -15 9 -15 1z"/> <path d="M755 1369 c-36 -6 -35 -6 20 -8 33 -1 71 -4 85 -8 14 -3 22 -2 18 2 -12 13 -81 21 -123 14z"/> <path d="M1091 1364 c0 -11 3 -14 6 -6 3 7 2 16 -1 19 -3 4 -6 -2 -5 -13z"/> <path d="M2200 1369 c-26 -5 -17 -6 33 -7 37 0 67 4 67 9 0 10 -40 9 -100 -2z"/> <path d="M2323 1363 c9 -2 17 -9 17 -14 0 -6 -9 -7 -20 -4 -11 4 -20 2 -20 -4 0 -6 7 -11 15 -11 9 0 27 -7 40 -16 28 -18 34 -8 8 12 -16 12 -16 13 -2 14 45 1 142 -106 182 -200 9 -19 16 -27 16 -18 1 27 -58 143 -87 171 -36 34 -120 77 -146 76 -17 -1 -18 -2 -3 -6z"/> <path d="M585 1336 c-17 -7 -36 -21 -44 -30 -8 -10 -33 -30 -55 -46 -23 -15 -49 -43 -60 -61 -16 -30 -14 -29 26 14 24 26 47 47 49 47 13 0 1 -39 -22 -71 -69 -97 -102 -175 -133 -312 -4 -17 -3 -26 2 -23 6 3 13 21 16 39 16 84 94 238 140 276 9 8 16 18 16 24 0 5 -10 2 -22 -9 l-22 -19 22 29 c12 16 22 36 22 45 1 25 21 45 80 79 55 32 45 44 -15 18z"/> <path d="M773 1332 c-6 -4 6 -8 29 -8 26 -1 35 2 27 7 -17 11 -40 11 -56 1z"/> <path d="M990 1330 c11 -7 11 -10 2 -10 -8 0 -10 -5 -6 -12 5 -8 1 -9 -12 -4 -14 5 -16 4 -8 -4 6 -6 31 -14 54 -17 34 -5 42 -3 38 8 -2 8 -15 15 -27 17 -22 3 -22 4 -4 17 16 13 15 14 -17 15 -26 0 -31 -3 -20 -10z"/> <path d="M1425 1298 c-4 -26 -5 -53 -2 -60 2 -7 8 8 12 34 4 26 5 53 2 60 -2 7 -8 -8 -12 -34z"/> <path d="M719 1325 c-3 -2 -23 -5 -44 -6 -42 -2 -129 -49 -139 -75 -5 -12 -1 -12 25 1 17 9 27 21 23 27 -4 7 -3 8 4 4 6 -4 19 1 29 11 10 10 35 20 56 21 39 3 94 20 66 21 -9 1 -18 -1 -20 -4z"/> <path d="M1940 1322 c1 -13 35 -49 58 -61 32 -17 27 -9 -18 32 -22 19 -40 32 -40 29z"/> <path d="M718 1290 c-71 -20 -126 -44 -78 -36 14 3 50 12 80 20 30 9 75 16 99 16 51 0 51 5 1 13 -20 3 -64 -3 -102 -13z"/> <path d="M1827 1294 c6 -15 23 -19 23 -5 0 5 -7 11 -14 14 -10 4 -13 1 -9 -9z"/> <path d="M2300 1305 c0 -7 61 -37 66 -33 2 3 -12 12 -31 21 -19 9 -35 15 -35 12z"/> <path d="M2156 1274 c-3 -8 -2 -13 3 -10 4 3 23 1 41 -4 18 -5 37 -7 43 -3 7 4 -55 30 -79 33 -1 0 -5 -7 -8 -16z"/> <path d="M960 1274 c0 -8 71 -36 77 -30 3 2 -9 12 -26 20 -31 16 -51 20 -51 10z"/> <path d="M1954 1261 c13 -15 14 -20 4 -24 -10 -4 -10 -6 0 -6 6 -1 12 -8 12 -17 0 -12 -3 -14 -12 -6 -9 7 -17 6 -25 -3 -10 -11 -8 -18 7 -37 14 -17 19 -19 20 -7 0 8 -6 21 -12 29 -11 12 -10 12 4 1 23 -17 35 -8 40 29 4 26 0 33 -25 45 -29 15 -30 15 -13 -4z"/> <path d="M2297 1269 c7 -7 15 -10 18 -7 3 3 -2 9 -12 12 -14 6 -15 5 -6 -5z"/> <path d="M2382 1255 c2 -12 10 -19 21 -18 10 0 16 -2 13 -5 -3 -3 14 -26 38 -52 42 -45 86 -137 86 -183 0 -12 5 -29 10 -37 20 -31 -3 86 -32 163 -31 81 -69 137 -94 137 -9 0 -13 4 -10 8 2 4 -4 8 -15 8 -14 0 -19 -6 -17 -21z"/> <path d="M1143 1255 c0 -8 4 -15 9 -15 4 0 8 7 8 15 0 8 -4 15 -8 15 -5 0 -9 -7 -9 -15z"/> <path d="M2038 1263 c7 -3 16 -2 19 1 4 3 -2 6 -13 5 -11 0 -14 -3 -6 -6z"/> <path d="M565 1237 c-22 -12 -42 -23 -44 -24 -2 -2 -2 -6 1 -9 6 -5 88 42 88 51 0 7 -1 7 -45 -18z"/> <path d="M740 1251 c-8 -5 -54 -28 -102 -52 -49 -24 -88 -47 -88 -52 0 -5 -7 -6 -16 -3 -8 3 -13 2 -9 -3 3 -5 2 -11 -2 -13 -28 -12 -143 -213 -143 -248 0 -15 3 -10 55 90 69 131 160 206 325 266 58 21 61 23 30 23 -19 0 -42 -4 -50 -8z"/> <path d="M2254 1249 c-3 -5 10 -9 28 -10 18 0 43 -2 56 -3 12 -2 19 0 15 4 -13 12 -93 19 -99 9z"/> <path d="M979 1232 c24 -22 65 -29 75 -13 3 5 -9 11 -27 14 -17 3 -41 9 -52 13 -17 6 -17 4 4 -14z"/> <path d="M599 1222 c-36 -24 -63 -52 -49 -52 6 0 13 7 16 15 4 8 10 12 15 9 5 -3 9 0 9 6 0 6 4 9 9 6 4 -3 16 3 26 14 22 25 9 26 -26 2z"/> <path d="M880 1236 c0 -2 7 -7 16 -10 8 -3 12 -2 9 4 -6 10 -25 14 -25 6z"/> <path d="M1621 1224 c0 -11 3 -14 6 -6 3 7 2 16 -1 19 -3 4 -6 -2 -5 -13z"/> <path d="M2025 1230 c3 -5 8 -10 11 -10 2 0 4 5 4 10 0 6 -5 10 -11 10 -5 0 -7 -4 -4 -10z"/> <path d="M1811 1208 c-1 -16 4 -28 9 -28 12 0 12 8 0 35 -8 18 -9 17 -9 -7z"/> <path d="M2300 1220 c8 -5 22 -9 30 -9 10 0 8 3 -5 9 -27 12 -43 12 -25 0z"/> <path d="M755 1210 c-16 -7 -17 -9 -3 -9 9 -1 20 4 23 9 7 11 7 11 -20 0z"/> <path d="M818 1213 c7 -3 16 -2 19 1 4 3 -2 6 -13 5 -11 0 -14 -3 -6 -6z"/> <path d="M2159 1199 c13 -10 28 -19 35 -19 22 -1 65 -45 72 -75 l7 -30 -24 21 c-24 20 -110 66 -116 61 -1 -2 25 -23 58 -47 81 -59 98 -75 154 -145 51 -63 68 -96 90 -178 11 -41 14 -45 14 -22 0 17 -11 62 -25 100 -14 39 -28 81 -31 95 -3 14 -29 52 -58 85 -59 69 -70 85 -57 85 25 0 135 -134 130 -157 0 -5 13 -39 31 -77 18 -38 41 -101 51 -140 15 -60 18 -65 19 -35 1 52 -32 153 -90 274 -27 57 -49 107 -49 111 0 13 -65 66 -99 80 -49 21 -52 16 -6 -9 37 -20 38 -22 16 -25 -14 -2 -30 2 -35 10 -6 8 -20 18 -31 22 -16 6 -17 9 -5 16 8 6 10 10 5 10 -6 0 -16 -5 -23 -12 -8 -8 -12 -8 -12 -1 0 6 -10 13 -22 16 l-23 6 24 -20z"/> <path d="M2347 1203 c-14 -17 -13 -20 11 -37 22 -17 25 -17 19 -3 -4 9 -10 24 -14 33 -4 12 -2 15 8 12 8 -3 14 -19 14 -39 0 -24 10 -46 30 -71 29 -36 57 -84 69 -122 4 -10 9 -16 12 -13 9 9 -16 107 -27 107 -5 0 -8 3 -7 8 4 14 -24 55 -31 44 -4 -7 -12 -3 -20 11 -13 20 -13 21 2 8 10 -8 17 -9 17 -3 0 6 -10 18 -22 26 -12 9 -19 19 -15 22 12 12 53 -34 83 -94 25 -50 29 -68 29 -144 0 -51 3 -80 8 -72 5 8 9 44 9 79 0 78 -40 174 -97 229 -41 40 -55 44 -78 19z"/> <path d="M998 1188 c17 -8 26 -8 34 0 9 9 4 12 -22 11 -33 0 -34 -1 -12 -11z"/> <path d="M1050 1186 c0 -16 -43 -30 -48 -16 -6 18 -28 10 -28 -10 0 -23 2 -24 45 -9 31 11 63 49 41 49 -5 0 -10 -6 -10 -14z"/> <path d="M1428 1158 c5 -71 10 -77 11 -15 0 31 -2 57 -7 57 -4 0 -6 -19 -4 -42z"/> <path d="M820 1180 c-9 -6 -10 -10 -3 -10 6 0 15 5 18 10 8 12 4 12 -15 0z"/> <path d="M1177 1176 c-4 -10 -5 -21 -2 -24 9 -9 17 6 13 25 -3 17 -4 17 -11 -1z"/> <path d="M785 1170 c-4 -6 -4 -14 -1 -18 4 -3 -4 -12 -16 -19 -34 -18 1 -17 47 2 36 16 80 12 70 -6 -4 -5 4 -9 17 -9 l23 1 -23 19 c-13 11 -21 24 -18 29 4 5 -9 6 -31 0 -23 -5 -42 -4 -49 2 -8 7 -14 6 -19 -1z"/> <path d="M748 1162 c-10 -2 -18 -8 -18 -13 0 -6 -4 -8 -9 -5 -12 8 -63 -33 -56 -45 4 -5 1 -9 -6 -9 -7 0 -10 -3 -6 -6 3 -3 14 -1 24 5 11 6 13 11 5 11 -7 0 -11 4 -8 9 3 5 19 8 35 7 16 -1 29 1 28 5 -1 4 7 14 18 22 22 17 19 25 -7 19z"/> <path d="M1045 1149 c-56 -23 -95 -52 -55 -42 18 5 21 3 15 -8 -8 -12 -6 -12 8 -1 11 9 27 11 48 7 24 -5 30 -4 27 6 -3 9 -18 13 -44 12 l-39 -3 48 17 c26 9 47 20 47 24 0 11 5 12 -55 -12z"/> <path d="M660 1150 c-13 -8 -13 -10 2 -10 9 0 20 5 23 10 8 13 -5 13 -25 0z"/> <path d="M1766 1147 c3 -10 9 -15 12 -12 3 3 0 11 -7 18 -10 9 -11 8 -5 -6z"/> <path d="M1270 1136 c0 -9 -4 -16 -10 -16 -15 0 -12 -27 4 -33 10 -4 13 -1 9 9 -3 8 0 21 6 28 8 10 9 16 1 21 -5 3 -10 -1 -10 -9z"/> <path d="M1890 1138 c0 -29 26 -41 56 -26 36 17 40 33 9 33 -15 0 -25 -6 -25 -14 0 -11 -5 -10 -20 4 -17 15 -20 16 -20 3z"/> <path d="M1158 1110 c-3 -17 -1 -27 4 -22 12 12 19 52 9 52 -5 0 -11 -14 -13 -30z"/> <path d="M594 1112 c-90 -49 -176 -173 -208 -300 -17 -65 -21 -117 -5 -67 33 103 46 137 76 195 38 75 68 110 123 145 21 13 41 29 45 35 8 13 6 13 -31 -8z"/> <path d="M1305 1119 c-4 -6 -5 -12 -2 -15 2 -3 7 2 10 11 7 17 1 20 -8 4z"/> <path d="M2141 1098 c53 -38 64 -51 133 -153 68 -102 85 -148 95 -265 5 -52 9 -78 10 -58 0 20 6 40 11 43 6 4 7 11 3 18 -3 6 -7 35 -8 64 -4 103 -125 289 -230 355 -60 38 -68 36 -14 -4z"/> <path d="M810 1108 c-14 -5 -37 -10 -52 -10 -16 0 -28 -4 -28 -9 0 -5 -3 -8 -7 -8 -20 3 -34 -2 -28 -10 3 -5 0 -13 -6 -17 -8 -4 -9 -3 -5 4 4 7 3 12 -3 12 -5 0 -15 -8 -20 -17 -6 -11 -11 -13 -11 -5 0 7 -30 -12 -67 -42 -37 -30 -71 -52 -75 -50 -4 3 3 15 17 28 14 13 25 27 25 31 0 4 8 14 18 21 16 12 16 13 0 10 -24 -3 -73 -68 -115 -151 -44 -88 -55 -115 -44 -115 4 0 14 18 21 41 8 22 17 42 22 45 4 3 5 -1 2 -9 -3 -8 -1 -18 5 -22 7 -4 11 3 11 17 0 13 11 39 25 58 14 19 25 30 25 25 0 -5 14 6 31 23 17 18 35 32 38 32 4 0 3 -22 -2 -48 -6 -28 -7 -57 -2 -68 7 -14 10 -6 15 36 9 73 15 84 56 103 l35 17 -5 -37 -6 -38 11 35 c6 19 15 41 21 47 11 13 79 35 86 28 2 -2 -18 -25 -45 -52 -27 -26 -54 -59 -60 -73 -7 -15 -12 -19 -13 -10 -1 8 -8 -5 -15 -30 -8 -24 -13 -45 -12 -46 1 -2 24 31 52 72 27 41 58 81 70 88 52 35 85 76 50 63 -8 -4 -17 -2 -20 3 -4 6 0 10 7 11 7 0 21 2 30 4 10 2 21 -2 25 -7 4 -7 1 -8 -7 -3 -8 5 -11 4 -6 -3 4 -8 15 -8 36 0 17 5 30 12 30 15 0 3 -6 3 -14 0 -8 -3 -20 1 -26 9 -14 16 -35 17 -70 2z"/> <path d="M1105 1101 c-16 -15 -59 -25 -51 -12 5 7 -1 11 -14 11 -13 0 -19 -4 -14 -11 4 -7 7 -21 8 -32 1 -11 7 -22 15 -25 10 -3 12 0 7 13 -6 15 -2 17 29 12 19 -3 37 -1 40 4 4 5 -2 9 -11 9 -16 0 -16 1 1 20 18 19 9 29 -10 11z"/> <path d="M1695 1100 c3 -5 8 -10 11 -10 2 0 4 5 4 10 0 6 -5 10 -11 10 -5 0 -7 -4 -4 -10z"/> <path d="M2070 1099 c0 -5 -6 -7 -12 -3 -10 5 -10 3 0 -7 10 -11 14 -11 21 -1 6 10 10 10 21 -3 7 -8 19 -15 26 -15 8 0 14 -4 14 -10 0 -5 7 -10 16 -10 18 0 -6 21 -53 48 -28 15 -33 15 -33 1z"/> <path d="M1853 1075 c0 -18 7 -30 23 -37 31 -14 31 -28 0 -28 -13 0 -36 12 -51 28 -23 22 -27 24 -24 8 4 -20 53 -54 79 -55 18 0 53 45 45 58 -3 6 3 14 12 20 14 8 15 10 3 11 -12 0 -12 2 -2 9 9 5 4 8 -16 7 -25 -1 -28 -4 -21 -18 14 -25 11 -38 -8 -38 -11 0 -14 3 -7 8 7 5 4 15 -11 30 l-22 24 0 -27z"/> <path d="M2390 1093 c1 -16 69 -138 70 -125 0 14 -58 132 -65 132 -3 0 -5 -3 -5 -7z"/> <path d="M925 1049 c-16 -10 -25 -19 -19 -19 7 0 22 9 35 20 30 24 23 24 -16 -1z"/> <path d="M1305 1059 c-4 -6 -5 -12 -2 -15 2 -3 7 2 10 11 7 17 1 20 -8 4z"/> <path d="M1446 1050 c3 -14 8 -37 11 -53 3 -15 9 -30 14 -32 9 -6 -1 68 -11 75 -4 3 -10 12 -14 20 -3 8 -4 4 0 -10z"/> <path d="M2174 985 c32 -38 63 -71 67 -73 5 -2 9 -8 9 -13 0 -14 82 -141 87 -135 3 3 -18 49 -47 103 -51 96 -90 155 -90 136 0 -5 6 -15 13 -23 6 -8 0 -4 -15 9 -21 19 -25 27 -17 38 8 9 8 13 0 13 -6 0 -11 -5 -11 -10 0 -6 -12 -2 -27 7 -20 13 -10 -3 31 -52z"/> <path d="M1200 1029 c0 -5 5 -7 10 -4 6 3 10 8 10 11 0 2 -4 4 -10 4 -5 0 -10 -5 -10 -11z"/> <path d="M1326 1025 c-3 -8 -1 -15 4 -15 13 0 22 18 11 24 -5 3 -11 -1 -15 -9z"/> <path d="M1055 1020 c-3 -5 4 -14 15 -20 11 -6 20 -7 20 -3 0 4 6 -1 13 -11 10 -13 24 -17 57 -14 24 2 45 8 47 13 2 6 -17 9 -48 6 -36 -2 -49 0 -45 8 4 6 16 11 26 11 10 0 21 3 23 8 3 4 -19 8 -49 9 -29 1 -56 -2 -59 -7z"/> <path d="M1291 1021 c0 -8 -11 -25 -23 -38 -18 -19 -19 -23 -5 -23 20 0 40 35 34 58 -3 12 -5 12 -6 3z"/> <path d="M1786 1002 c2 -39 3 -42 12 -40 13 2 42 -14 38 -21 -3 -4 6 -20 20 -36 36 -43 29 -41 -22 4 -26 23 -52 41 -58 41 -11 -1 53 -59 65 -60 11 0 49 -79 41 -84 -5 -3 -26 17 -46 44 -39 51 -53 62 -42 34 5 -12 2 -15 -10 -10 -15 6 -15 4 -3 -11 8 -9 30 -33 49 -53 56 -56 128 -207 131 -270 0 -14 5 -34 10 -45 15 -32 1 122 -16 180 -25 82 -25 82 -35 65 -8 -13 -10 -13 -10 1 0 9 -7 22 -15 29 -11 9 -12 17 -5 30 14 27 12 61 -5 94 -14 27 -14 31 -1 38 22 12 1 44 -39 59 -16 7 -37 18 -45 25 -14 12 -16 10 -14 -14z m61 -32 c26 -16 41 -30 35 -30 -13 0 -92 47 -92 55 0 9 9 5 57 -25z m-27 -121 c0 -6 -4 -7 -10 -4 -5 3 -10 11 -10 16 0 6 5 7 10 4 6 -3 10 -11 10 -16z"/> <path d="M840 993 c-19 -9 -39 -18 -45 -18 -5 -1 -21 -7 -35 -13 -21 -9 -22 -11 -5 -11 21 -1 125 44 125 54 0 7 1 7 -40 -12z"/> <path d="M2138 970 c22 -46 125 -191 130 -185 13 13 -35 98 -88 155 -50 55 -57 59 -42 30z"/> <path d="M1299 961 c-19 -16 -20 -20 -8 -21 17 0 45 27 37 35 -3 3 -16 -3 -29 -14z"/> <path d="M1334 951 c-4 -13 -21 -29 -38 -37 -24 -10 -26 -13 -10 -14 25 0 68 43 61 62 -4 8 -8 5 -13 -11z"/> <path d="M1357 934 c-17 -34 -75 -71 -104 -65 -7 1 -13 -5 -13 -13 0 -17 26 -11 86 21 31 17 43 30 48 54 9 44 3 45 -17 3z"/> <path d="M1090 944 c0 -9 -5 -12 -12 -8 -7 4 -10 3 -6 -1 11 -12 57 -15 63 -4 4 5 0 9 -7 9 -9 0 -9 3 2 10 12 8 9 10 -12 10 -19 0 -28 -5 -28 -16z"/> <path d="M2099 952 c7 -5 10 -15 6 -21 -4 -7 -1 -18 5 -26 7 -8 9 -15 6 -15 -4 0 6 -19 22 -42 40 -60 62 -104 83 -168 10 -30 18 -46 18 -34 2 51 -111 304 -139 311 -12 4 -13 3 -1 -5z"/> <path d="M985 940 c3 -6 -2 -13 -12 -17 -18 -7 -30 -15 -59 -42 -21 -19 -29 -7 -8 13 20 20 15 29 -6 13 -23 -18 -138 -173 -159 -216 -10 -20 -22 -52 -25 -71 -5 -27 -1 -22 17 22 25 59 81 138 99 138 5 0 0 -13 -12 -30 -53 -74 -119 -271 -107 -317 3 -12 5 -8 6 9 2 60 54 190 116 294 63 105 87 135 150 180 25 18 27 21 11 27 -10 4 -15 3 -11 -3z m-135 -140 c0 -5 -5 -10 -11 -10 -5 0 -7 5 -4 10 3 6 8 10 11 10 2 0 4 -4 4 -10z"/> <path d="M1166 930 c-23 -12 -53 -19 -72 -17 -19 3 -40 -3 -53 -12 -21 -16 -18 -16 51 -6 49 7 83 17 102 33 35 27 24 28 -28 2z"/> <path d="M737 929 c-27 -16 -97 -115 -127 -183 -54 -118 -95 -306 -71 -321 7 -4 11 7 11 28 0 51 42 168 88 245 40 67 111 156 118 149 2 -2 -10 -28 -26 -59 -17 -30 -32 -77 -35 -104 -6 -54 -2 -50 15 13 15 59 83 156 125 179 40 21 40 21 20 41 -14 13 -19 12 -51 -14 -20 -15 -46 -35 -57 -43 -28 -20 -72 -63 -74 -73 -1 -4 -12 -20 -24 -35 l-21 -27 7 25 c10 32 55 111 75 130 22 22 54 60 49 60 -2 0 -12 -5 -22 -11z"/> <path d="M1255 929 c-4 -6 -5 -12 -2 -15 2 -3 7 2 10 11 7 17 1 20 -8 4z"/> <path d="M1178 893 c-10 -2 -18 -8 -18 -11 0 -4 -23 -5 -51 -3 -44 3 -51 1 -46 -12 4 -11 1 -14 -7 -11 -7 3 -13 -1 -13 -9 0 -9 7 -12 19 -9 34 9 18 -8 -33 -34 -66 -33 -117 -83 -130 -125 -17 -58 -39 -182 -38 -214 1 -20 6 -9 15 33 7 34 18 71 23 81 6 10 7 21 4 25 -3 3 -1 6 5 6 10 0 22 21 50 85 3 6 -5 -2 -17 -17 -11 -14 -21 -34 -21 -44 0 -9 -3 -15 -6 -11 -13 13 7 56 42 91 22 22 33 40 28 48 -4 7 -4 10 1 6 4 -4 14 0 22 10 13 15 14 14 8 -13 -7 -30 -6 -30 13 -10 11 11 17 24 14 29 -3 5 -1 6 5 3 5 -3 21 5 35 18 14 13 29 21 34 17 4 -4 4 -1 0 5 -5 9 11 21 48 37 68 30 75 45 14 29z m-53 -33 c-3 -5 -15 -10 -26 -10 -10 0 -19 5 -19 10 0 6 12 10 26 10 14 0 23 -4 19 -10z"/> <path d="M1377 893 c-4 -8 -18 -57 -23 -83 -1 -8 -6 -26 -10 -40 -7 -22 -6 -23 8 -12 9 7 21 40 27 74 10 57 9 81 -2 61z"/> <path d="M1290 838 l-55 -29 39 5 c24 3 50 16 65 31 32 31 21 30 -49 -7z"/> <path d="M1190 850 c-13 -8 -12 -10 3 -10 9 0 17 5 17 10 0 12 -1 12 -20 0z"/> <path d="M2050 856 c0 -2 7 -7 16 -10 8 -3 12 -2 9 4 -6 10 -25 14 -25 6z"/> <path d="M2093 843 c1 -10 10 -27 20 -38 37 -41 81 -119 104 -184 23 -66 24 -56 3 29 -14 55 -69 157 -103 188 -22 21 -25 22 -24 5z"/> <path d="M963 815 c-24 -28 -24 -29 12 -13 14 6 25 17 25 25 0 20 -12 16 -37 -12z"/> <path d="M899 807 c-37 -51 -91 -160 -124 -252 -41 -112 -45 -179 -5 -78 13 34 27 60 30 58 4 -2 23 28 44 66 39 73 45 100 11 48 -19 -28 -35 -38 -35 -21 0 4 11 24 25 44 14 20 25 41 25 46 0 5 12 31 26 56 28 50 30 68 3 33z"/> <path d="M1120 799 c-30 -16 -66 -41 -81 -55 -14 -13 -28 -22 -31 -18 -4 3 -16 -13 -28 -35 -23 -47 -42 -131 -29 -131 5 0 9 5 9 11 0 6 10 32 21 59 21 49 103 126 190 179 53 32 11 24 -51 -10z"/> <path d="M1810 775 c10 -27 21 -59 25 -69 3 -10 7 -17 10 -15 8 9 -16 84 -35 109 -19 25 -19 24 0 -25z"/> <path d="M1160 790 c-19 -11 -31 -19 -27 -20 11 0 67 29 67 35 0 7 -1 7 -40 -15z"/> <path d="M1787 764 c30 -53 39 -57 18 -8 -8 20 -15 38 -15 39 0 2 -6 5 -14 8 -9 4 -5 -10 11 -39z"/> <path d="M1295 791 c-33 -7 -34 -28 -1 -23 21 4 43 19 35 25 -2 2 -17 1 -34 -2z"/> <path d="M1388 776 c-3 -14 -1 -31 3 -38 5 -7 9 -11 9 -8 1 3 3 20 4 38 4 37 -9 44 -16 8z"/> <path d="M1940 781 c0 -6 11 -28 24 -49 25 -41 68 -127 91 -188 l15 -39 -5 34 c-11 75 -125 295 -125 242z"/> <path d="M2080 770 c0 -5 22 -55 50 -112 54 -113 80 -198 80 -268 0 -29 3 -40 9 -31 7 11 10 11 15 0 3 -8 3 18 0 56 -11 124 -99 358 -136 361 -10 1 -18 -2 -18 -6z"/> <path d="M1998 752 c3 -9 20 -42 38 -74 17 -31 37 -73 44 -93 14 -42 17 -185 6 -255 -5 -31 -4 -41 3 -30 19 27 34 154 28 235 -7 94 -43 215 -64 215 -8 0 -11 -4 -8 -10 3 -5 -1 -10 -9 -10 -9 0 -16 6 -16 14 0 8 -7 16 -14 19 -11 4 -13 1 -8 -11z m60 -57 c-3 -3 -9 2 -12 12 -6 14 -5 15 5 6 7 -7 10 -15 7 -18z"/> <path d="M1150 747 c-14 -7 -33 -21 -42 -32 -22 -25 -71 -125 -65 -131 8 -9 74 80 81 109 5 20 17 33 41 43 19 8 35 16 35 19 0 8 -24 4 -50 -8z"/> <path d="M1750 756 c0 -13 63 -171 73 -181 12 -13 2 22 -30 105 -23 59 -43 95 -43 76z"/> <path d="M1292 742 c-25 -7 -26 -25 -2 -29 16 -2 40 15 40 28 0 10 -4 10 -38 1z"/> <path d="M1347 724 c-18 -25 -18 -26 0 -39 10 -8 13 -15 8 -15 -6 0 -12 -11 -13 -25 -1 -14 -9 -42 -18 -63 -9 -20 -18 -45 -19 -55 -1 -9 -10 -24 -21 -32 -15 -11 -16 -15 -4 -15 8 0 -3 -12 -25 -25 -46 -29 -36 -33 14 -6 29 15 37 29 62 107 16 49 32 100 34 114 3 14 8 37 11 53 8 34 -5 34 -29 1z"/> <path d="M1392 690 c0 -14 2 -19 5 -12 2 6 2 18 0 25 -3 6 -5 1 -5 -13z"/> <path d="M1240 678 c0 -4 16 -7 35 -6 19 1 35 5 35 10 0 4 -16 7 -35 5 -19 -1 -35 -5 -35 -9z"/> <path d="M1144 657 c-51 -36 -84 -83 -115 -163 -40 -104 -50 -153 -41 -205 8 -42 9 -40 14 36 5 80 27 143 63 179 12 11 13 16 4 16 -7 0 9 23 36 50 27 28 45 50 39 50 -5 0 -15 -5 -22 -12 -6 -6 -14 -9 -18 -6 -3 4 18 22 48 42 29 20 46 36 38 36 -8 -1 -29 -11 -46 -23z m-54 -76 c-5 -11 -15 -23 -21 -27 -6 -3 -3 5 6 20 20 30 30 35 15 7z"/> <path d="M1322 660 c0 -14 2 -19 5 -12 2 6 2 18 0 25 -3 6 -5 1 -5 -13z"/> <path d="M1740 665 c0 -3 8 -20 17 -38 9 -18 16 -35 15 -39 -1 -5 3 -8 9 -8 6 0 8 -7 5 -16 -3 -8 -2 -12 4 -9 6 3 10 -3 10 -14 0 -12 5 -21 10 -21 17 0 11 24 -21 83 -27 51 -49 78 -49 62z"/> <path d="M1240 650 c-21 -7 -21 -8 -5 -9 11 0 27 4 35 9 18 11 5 11 -30 0z"/> <path d="M2392 640 c0 -14 2 -19 5 -12 2 6 2 18 0 25 -3 6 -5 1 -5 -13z"/> <path d="M1421 646 c-2 -17 22 -86 29 -86 5 0 11 -11 14 -25 6 -22 9 -24 26 -15 19 10 19 11 0 30 -11 11 -24 20 -28 20 -4 0 -15 19 -24 43 -9 23 -17 38 -17 33z"/> <path d="M1274 626 c-10 -8 -16 -17 -12 -21 7 -7 48 16 48 27 0 12 -14 9 -36 -6z"/> <path d="M1624 621 c3 -5 15 -7 26 -4 28 7 25 13 -6 13 -14 0 -23 -4 -20 -9z"/> <path d="M1733 570 c2 -42 10 -68 34 -109 37 -61 46 -49 11 14 -12 22 -27 65 -34 95 l-13 55 2 -55z"/> <path d="M1380 570 c-2 -25 -3 -59 -1 -77 1 -17 -3 -34 -9 -38 -5 -3 -10 -16 -10 -28 0 -18 2 -19 11 -7 8 12 9 10 4 -8 -8 -28 13 -162 26 -162 9 0 7 36 -6 81 -4 18 -2 28 7 31 14 6 17 -12 18 -89 0 -24 4 -43 9 -43 13 0 21 84 9 91 -6 4 -7 9 0 13 5 3 -1 27 -16 58 -18 37 -27 79 -32 138 -5 65 -8 74 -10 40z"/> <path d="M1155 580 c-11 -12 -32 -29 -48 -36 -15 -8 -25 -19 -22 -24 3 -6 -5 -25 -18 -42 -26 -36 -35 -56 -47 -105 -12 -49 4 -40 17 10 14 53 50 100 70 93 10 -4 13 -1 8 13 -4 14 5 29 31 55 20 19 34 40 32 46 -2 7 -12 3 -23 -10z"/> <path d="M1260 555 c-13 -14 -19 -25 -13 -25 12 0 48 38 41 45 -2 3 -15 -6 -28 -20z"/> <path d="M1414 510 c4 -75 21 -124 37 -114 6 4 7 9 2 13 -5 3 -10 15 -11 26 0 11 -8 47 -17 80 l-15 60 4 -65z"/> <path d="M1941 534 c0 -11 3 -14 6 -6 3 7 2 16 -1 19 -3 4 -6 -2 -5 -13z"/> <path d="M1259 511 c-13 -11 -22 -21 -19 -24 3 -2 16 6 30 19 29 29 22 32 -11 5z"/> <path d="M1525 477 c-22 -28 -39 -56 -37 -61 2 -4 -5 -17 -14 -27 -10 -11 -14 -22 -11 -25 3 -4 25 23 48 60 23 37 44 65 46 62 3 -2 0 -13 -5 -23 -5 -10 -9 -40 -10 -68 l0 -50 13 55 c21 84 28 130 18 130 -4 -1 -26 -24 -48 -53z"/> <path d="M1326 485 c-3 -8 -1 -25 4 -37 8 -20 9 -18 9 15 1 39 -3 47 -13 22z"/> <path d="M1146 475 c-11 -8 -17 -15 -13 -15 4 0 -9 -21 -29 -47 -36 -47 -54 -83 -54 -106 0 -7 10 7 22 31 12 23 35 57 51 75 l28 32 -6 -39 c-4 -23 -17 -49 -34 -65 -45 -44 -59 -68 -18 -33 21 17 42 32 46 32 10 0 21 37 28 88 3 25 0 32 -9 27 -7 -4 -2 3 11 14 27 24 7 29 -23 6z"/> <path d="M1589 457 c0 -12 -3 -31 -5 -42 -3 -11 -5 -41 -5 -68 -1 -33 -6 -50 -18 -56 -9 -5 -14 -12 -11 -14 3 -3 13 0 22 7 15 11 30 88 30 148 -1 9 8 18 19 20 17 3 16 4 -6 15 -22 10 -25 9 -26 -10z"/> <path d="M1300 441 c0 -5 -14 -14 -32 -20 -17 -6 -28 -14 -25 -18 4 -3 2 -12 -4 -20 -9 -9 -8 -13 0 -13 6 0 14 7 17 15 7 16 34 21 34 6 0 -5 -7 -14 -15 -21 -8 -7 -12 -17 -8 -23 4 -7 0 -8 -13 -3 -10 4 -15 4 -11 0 4 -4 0 -15 -9 -25 -10 -11 -12 -19 -5 -24 10 -6 62 40 59 54 -1 3 3 17 9 31 20 50 24 70 14 70 -6 0 -11 -4 -11 -9z"/> <path d="M1700 447 c0 -11 29 -67 35 -67 3 0 5 6 5 14 0 14 -39 67 -40 53z"/> <path d="M1740 439 c0 -8 4 -20 9 -27 7 -11 9 -11 14 1 3 9 -1 21 -9 27 -11 10 -14 10 -14 -1z"/> <path d="M1315 377 c-20 -47 -20 -63 -1 -48 16 13 31 69 22 78 -3 3 -13 -10 -21 -30z"/> <path d="M1522 398 c-1 -9 -19 -30 -39 -47 -26 -21 -32 -31 -21 -31 10 0 22 9 28 20 6 11 15 20 19 20 14 0 0 -41 -28 -85 -51 -81 -81 -101 -81 -54 0 10 -5 19 -11 19 -13 0 -5 -29 27 -93 24 -48 33 -103 15 -93 -5 4 -8 -2 -6 -11 2 -10 4 -22 5 -28 1 -5 8 8 16 30 15 41 10 120 -7 109 -23 -14 -5 33 27 73 41 50 60 51 22 1 -35 -47 -41 -58 -30 -58 15 0 64 89 57 101 -4 5 -2 16 5 24 6 8 10 36 7 67 -2 29 -4 45 -5 36z"/> <path d="M1705 380 c15 -28 45 -42 45 -20 0 6 -6 10 -14 10 -8 0 -18 9 -21 20 -3 11 -11 20 -16 20 -5 0 -3 -13 6 -30z"/> <path d="M1660 358 c0 -21 5 -38 10 -38 13 0 13 40 0 60 -7 11 -10 5 -10 -22z"/> <path d="M1333 320 c-23 -29 -30 -46 -15 -36 5 3 9 -24 9 -60 -1 -44 4 -68 12 -74 11 -6 10 -14 -3 -40 -19 -39 -19 -40 -7 -40 5 0 13 9 16 20 8 25 22 26 30 1 7 -22 -13 -80 -23 -65 -4 6 -15 10 -25 8 -12 -1 -17 2 -14 11 4 9 -1 11 -14 8 -13 -4 -19 0 -19 11 0 10 4 14 10 11 13 -8 24 39 16 69 -3 14 -2 28 4 31 5 3 10 18 9 33 0 24 -2 22 -15 -13 -8 -22 -12 -50 -9 -62 3 -12 1 -23 -4 -25 -12 -4 -32 -87 -22 -92 3 -2 34 -4 68 -5 l62 -2 10 38 c9 32 7 48 -9 88 -10 28 -19 44 -20 37 0 -7 7 -29 15 -49 20 -47 19 -51 -5 -20 -28 36 -54 171 -40 211 13 38 10 39 -17 6z"/> <path d="M1710 320 c-6 -10 -10 -26 -10 -34 0 -9 -5 -16 -11 -16 -5 0 -8 -4 -4 -10 12 -19 35 3 35 32 0 22 4 29 15 25 8 -4 17 -2 20 2 2 5 -4 11 -15 14 -13 3 -24 -1 -30 -13z"/> <path d="M1110 290 c-19 -16 -41 -30 -47 -30 -7 0 -13 -7 -13 -15 0 -11 18 -3 60 26 33 22 60 43 60 45 0 12 -29 0 -60 -26z"/> <path d="M1647 304 c-11 -11 -8 -82 4 -89 6 -4 8 -13 5 -21 -3 -7 -1 -16 5 -19 5 -4 7 -10 4 -15 -6 -10 26 -110 36 -110 4 0 3 12 -2 27 -23 72 -45 183 -36 192 5 5 5 16 0 25 -5 9 -12 13 -16 10z"/> <path d="M1266 285 c-3 -9 -12 -12 -22 -8 -13 5 -15 3 -9 -7 5 -8 1 -18 -10 -27 -18 -12 -18 -13 3 -13 19 0 21 -3 13 -17 -5 -10 -19 -28 -30 -40 -12 -13 -17 -25 -11 -28 6 -3 10 -1 10 5 0 6 5 8 10 5 10 -6 49 69 65 123 7 24 -9 31 -19 7z"/> <path d="M1361 264 c0 -11 3 -14 6 -6 3 7 2 16 -1 19 -3 4 -6 -2 -5 -13z"/> <path d="M1290 236 c-5 -15 -10 -32 -10 -37 0 -5 -19 -30 -42 -56 -24 -25 -34 -41 -23 -35 11 5 28 19 37 29 22 24 62 113 54 120 -3 3 -10 -6 -16 -21z"/> <path d="M1560 250 c0 -5 5 -10 10 -10 6 0 10 5 10 10 0 6 -4 10 -10 10 -5 0 -10 -4 -10 -10z"/> <path d="M1091 231 c-24 -24 -54 -81 -47 -88 2 -3 12 9 21 27 9 17 26 36 39 41 12 6 23 17 23 25 0 19 -13 18 -36 -5z"/> <path d="M1540 191 c10 -21 30 -37 30 -26 0 14 -21 45 -31 45 -6 0 -6 -7 1 -19z"/> <path d="M1510 163 c0 -5 7 -18 15 -29 12 -16 14 -16 15 -3 0 9 -7 22 -15 29 -8 7 -15 8 -15 3z"/> <path d="M1471 99 c-6 -29 -9 -54 -7 -56 5 -5 12 18 21 70 9 55 -2 45 -14 -14z"/> <path d="M1242 108 c-5 -7 -12 -24 -14 -37 -1 -14 -10 -27 -18 -29 -13 -5 -13 -3 -1 12 8 9 11 19 7 23 -3 3 -6 1 -6 -5 0 -7 -6 -12 -12 -12 -7 0 -21 -7 -32 -15 -18 -14 -18 -14 0 -13 11 1 31 -1 45 -5 24 -6 26 -3 35 43 11 54 11 56 -4 38z"/> <path d="M1500 65 c0 -22 5 -47 10 -55 7 -11 9 -3 8 27 -2 56 -18 81 -18 28z"/> <path d="M1356 75 c-9 -26 -7 -32 5 -12 6 10 9 21 6 23 -2 3 -7 -2 -11 -11z"/> </g> </svg> 